<svg width="105" height="30" viewBox="0 0 105 30" fill="none" xmlns="http://www.w3.org/2000/svg">
<g id="AMOREA_logo">
<g id="Group">
<path id="Vector" d="M9.59808 0.907476L14.868 15.4727C15.0018 15.8659 15.1773 16.2434 15.3915 16.5986C15.5774 16.8061 15.8204 16.953 16.0895 17.0207L17.2063 17.3725V17.8651H11.1686V17.3725L12.2854 17.0207L12.6344 16.8448C12.6818 16.7462 12.7057 16.6378 12.7042 16.5282C12.6981 16.3133 12.6629 16.1002 12.5995 15.8949C12.5297 15.6486 12.3901 15.2968 12.2505 14.8746L11.1337 11.6731H5.41004L4.15362 14.8395C3.97912 15.2968 3.87442 15.6486 3.76972 15.9301C3.68489 16.1184 3.63746 16.3215 3.63012 16.5282C3.62531 16.5854 3.63211 16.6429 3.65011 16.6974C3.66811 16.7518 3.69694 16.802 3.73483 16.8448C3.8392 16.925 3.95759 16.9847 4.08383 17.0207L5.16573 17.3374V17.8651H0.0702932L0.000488281 17.3725L1.222 16.9856C1.47556 16.9051 1.70404 16.7596 1.8851 16.5634C2.06346 16.2606 2.21528 15.9428 2.33881 15.6135L8.37657 1.08339L9.59808 0.907476ZM5.82885 10.5825H10.7149L8.41146 4.03865L5.82885 10.5825ZM33.4001 1.15375H37.7626V1.6463L36.2968 2.13884C36.2104 2.15596 36.1337 2.20535 36.0819 2.27712C36.0301 2.34888 36.0072 2.43773 36.0176 2.52584C35.9827 3.05357 35.9827 3.72202 35.9827 4.49602V14.171C35.9827 15.1209 35.9827 15.8949 36.0176 16.5634C36.0525 17.2318 36.1223 16.8448 36.3317 16.9152L37.7626 17.3725V17.8651H32.0739L32.0041 17.3725L33.3652 16.9504C33.4544 16.9213 33.5325 16.8651 33.5887 16.7895C33.645 16.7139 33.6766 16.6226 33.6793 16.5282C33.6793 15.8949 33.7142 15.1209 33.7142 14.171V3.86274L27.816 17.8651L26.9784 17.9355L21.0803 3.86274V16.5282C21.0875 16.6213 21.1209 16.7105 21.1765 16.7853C21.2321 16.86 21.3077 16.9173 21.3944 16.9504L22.7206 17.3725V17.8651H17.9393V17.3725L19.3702 16.9152C19.4558 16.8968 19.5344 16.8537 19.5963 16.7913C19.6582 16.7289 19.7009 16.6497 19.7192 16.5634V2.52584C19.7145 2.43602 19.6816 2.35004 19.6251 2.28042C19.5686 2.21081 19.4915 2.1612 19.4051 2.13884L17.9393 1.6463V1.15375H22.4414L27.9556 14.2414L33.4001 1.15375ZM42.7534 9.28074C42.7534 11.8842 43.2769 13.8895 44.289 15.2616C45.3011 16.6337 46.8716 17.3022 48.8609 17.3022C50.8503 17.3022 52.3161 16.6689 53.2584 15.4375C54.2007 14.2062 54.6544 12.2008 54.6544 9.5622C54.6544 6.92356 54.1658 5.09411 53.1537 3.7572C52.1416 2.42029 50.606 1.71665 48.5119 1.71665C46.4179 1.71665 45.0219 2.34993 44.1145 3.61648C43.2071 4.88302 42.7534 6.74765 42.7534 9.28074ZM57.237 9.14001C57.237 11.8842 56.4692 14.1006 54.9336 15.7894C53.398 17.4429 51.2342 18.2873 48.4421 18.2873C45.6501 18.2873 43.7655 17.5133 42.2997 15.9653C40.8339 14.4173 40.1359 12.3416 40.1359 9.66774C40.1359 6.99392 40.9386 4.74229 42.4742 3.15911C44.0098 1.57593 46.2085 0.731567 48.9307 0.731567C51.653 0.731567 53.6423 1.50557 55.0732 3.01838C56.5041 4.5312 57.237 6.53656 57.237 9.14001ZM63.7285 14.171V15.4727C63.7207 15.8132 63.7324 16.1539 63.7634 16.493C63.7634 16.7393 63.8681 16.9152 64.0775 16.9504L65.3688 17.3725V17.8651H59.6451V17.3725L61.1109 16.9152C61.1922 16.8949 61.2655 16.8505 61.3215 16.7878C61.3775 16.7251 61.4136 16.6469 61.4251 16.5634V2.52584C61.3902 2.31475 61.3203 2.17402 61.1109 2.13884L59.68 1.6463V1.15375H66.1366C67.9514 1.15375 69.3474 1.50557 70.2199 2.20921C70.6773 2.54663 71.0443 2.99334 71.288 3.50919C71.5317 4.02503 71.6444 4.59385 71.616 5.16447C71.6644 6.2102 71.3289 7.23725 70.6736 8.04937C69.902 8.87974 68.9078 9.46641 67.8118 9.7381C68.3004 10.5121 68.789 11.2509 69.2078 11.9546C69.6266 12.6582 70.0105 13.3266 70.3944 13.9247L71.3717 15.5079C71.6197 15.8935 71.9127 16.2478 72.2442 16.5634C72.3548 16.6986 72.484 16.8171 72.6281 16.9152L73.0469 17.1615L73.5006 17.3374L74.059 17.4781V18.0058L72.6281 18.1114H71.7555L71.0925 18.041L70.6038 17.8651L70.1152 17.5485C69.7505 17.2462 69.4328 16.8904 69.1729 16.493C68.8588 16.0356 68.5098 15.4727 68.1957 14.9098L67.1138 13.01C66.7648 12.3416 66.3809 11.7083 65.9621 11.0398L65.648 10.6176C65.5735 10.5068 65.4787 10.4113 65.3688 10.3362L65.0198 10.1955H63.6936L63.7285 14.171ZM63.7285 9.14001H65.0547C66.4158 9.14001 67.4279 8.85856 68.0561 8.26047C68.6843 7.66238 68.9984 6.78284 68.9984 5.51629C68.9984 4.24975 68.7192 3.44057 68.091 2.87766C67.4628 2.31475 66.5554 2.06847 65.2641 2.06847H64.5312L63.7285 2.13884V9.14001ZM77.8282 1.18893H86.309L86.3788 1.25929L85.6808 4.95338L85.2271 5.05892L84.4942 2.27956H79.0148V8.82338H82.8539C83.0633 8.82338 83.168 8.71783 83.2378 8.50674L83.6566 6.92356H84.2848C84.2848 8.04938 84.2499 8.85856 84.2499 9.38629C84.2499 9.91401 84.2848 10.7232 84.2848 11.8138L83.6566 11.8842L83.2378 10.2306C83.168 10.0196 83.0633 9.91401 82.8539 9.91401H79.0148V14.2766C79.0148 15.1561 79.0148 16.0356 79.0497 16.88H84.7385L86.1694 13.8544L86.6929 13.7488L86.4486 17.9003L86.3439 18.0058H74.9315V17.5133L76.3973 17.0559C76.4809 17.0406 76.5571 16.9977 76.6139 16.934C76.6708 16.8704 76.705 16.7895 76.7114 16.7041V2.52584C76.7218 2.43773 76.6989 2.34888 76.6471 2.27712C76.5954 2.20535 76.5186 2.15596 76.4322 2.13884L74.9664 1.6463V1.15375H77.898M96.814 0.872292L102.049 15.4375C102.183 15.8307 102.358 16.2082 102.573 16.5634C102.764 16.7635 103.005 16.9091 103.271 16.9856L104.387 17.3374V17.8299H98.2798V17.3374L99.3966 16.9856C99.5278 16.9635 99.6494 16.9022 99.7456 16.8096C99.7835 16.7668 99.8123 16.7166 99.8303 16.6622C99.8483 16.6078 99.8551 16.5502 99.8503 16.493C99.8476 16.2745 99.8001 16.0588 99.7107 15.8597C99.6409 15.6135 99.5013 15.2616 99.3617 14.8395L98.2449 11.6379H92.5212L91.2648 14.8043C91.1252 15.2616 90.9856 15.6135 90.8809 15.8949C90.7961 16.0832 90.7487 16.2864 90.7413 16.493C90.7365 16.5502 90.7433 16.6078 90.7613 16.6622C90.7793 16.7166 90.8081 16.7668 90.846 16.8096L91.195 16.9856L92.2769 17.3022V17.8299H87.1815V17.3374L88.3681 16.9504C88.6217 16.8699 88.8501 16.7244 89.0312 16.5282C89.2096 16.2255 89.3614 15.9076 89.4849 15.5783L95.5227 1.08339L96.814 0.872292ZM92.94 10.5825H97.8261L95.5227 4.03865L92.94 10.5825Z" fill="white"/>
<path id="Vector_2" d="M37.204 24.1275H40.1008L39.8564 25.3588H39.7168L39.4725 24.4089H37.6228V26.6254H38.9141C38.9839 26.6254 39.0188 26.5902 39.0537 26.5198L39.1933 25.9569H39.4027V27.6105H39.1933L39.0537 27.0827C39.0188 27.0124 38.9839 26.9772 38.9141 26.9772H37.6228V29.3344H39.5423L40.031 28.3141H40.2055L40.1356 29.7214H36.2617V29.5807L36.7503 29.4047C36.7781 29.4047 36.8047 29.3936 36.8244 29.3738C36.844 29.354 36.855 29.3272 36.855 29.2992C36.8493 29.1808 36.8611 29.0623 36.8899 28.9474V24.8663C36.8633 24.775 36.8515 24.6799 36.855 24.5848C36.855 24.5575 36.8487 24.5306 36.8366 24.5062C36.8245 24.4817 36.8069 24.4605 36.7852 24.4441L36.2617 24.2682V24.1275H37.2389M44.6378 24.4793C44.3936 24.3817 44.1326 24.3339 43.87 24.3386C43.5706 24.3172 43.2734 24.4045 43.0324 24.5848C42.9319 24.6775 42.8543 24.7925 42.8058 24.9208C42.7573 25.0491 42.7393 25.1871 42.7532 25.3237C42.7547 25.482 42.7905 25.638 42.8579 25.781C42.9214 25.9097 43.0178 26.019 43.1371 26.0977C43.2624 26.2114 43.4035 26.3062 43.5559 26.3791L44.0445 26.6254L44.568 26.8717C44.7502 26.9433 44.9163 27.051 45.0566 27.1883C45.1987 27.2963 45.3077 27.4427 45.3707 27.6105C45.4731 27.7922 45.5216 27.9998 45.5103 28.2086C45.5207 28.4463 45.4679 28.6824 45.3574 28.8927C45.247 29.103 45.0829 29.2798 44.8821 29.4047C44.4009 29.7042 43.8417 29.8512 43.2767 29.8269C42.8042 29.8183 42.3349 29.7474 41.8807 29.6158H41.8458L42.0552 28.2438H42.2297L42.5089 29.3696C42.7866 29.4815 43.0823 29.5412 43.3814 29.5455C43.7072 29.5614 44.0282 29.4618 44.2888 29.264C44.4043 29.1808 44.497 29.0693 44.558 28.9401C44.6191 28.8108 44.6465 28.6681 44.6378 28.5252C44.64 28.3665 44.604 28.2096 44.5331 28.0678C44.4599 27.9359 44.3655 27.817 44.2539 27.716L43.8351 27.4697L43.3465 27.2587L42.7881 26.9772C42.6165 26.9049 42.4619 26.797 42.3344 26.6606C42.1912 26.531 42.0729 26.3759 41.9854 26.2032C41.9106 26.0008 41.8751 25.7858 41.8807 25.5699C41.872 25.3462 41.9223 25.1241 42.0266 24.9263C42.1308 24.7285 42.2852 24.5621 42.474 24.4441C42.9287 24.1768 43.4485 24.0427 43.9747 24.0571C44.408 24.0711 44.8397 24.1181 45.266 24.1978H45.3009L45.0566 25.4644H44.917L44.6378 24.4793ZM48.9654 29.7214H47.8835V29.5807L48.4768 29.4047C48.5466 29.3696 48.5815 29.3344 48.5815 29.264V24.4793H47.1855L46.8365 25.5348H46.662L46.5573 24.1275H51.4434L51.1991 25.4996H51.0246L50.7802 24.4089H49.3493V28.4197C49.3409 28.6782 49.3526 28.937 49.3842 29.1937C49.3842 29.264 49.4191 29.2992 49.4889 29.3344L50.0822 29.5103V29.6862H48.9654M54.9334 23.9868L56.6784 28.9122C56.7239 29.0426 56.7951 29.1623 56.8878 29.264C56.9112 29.3008 56.9419 29.3322 56.9779 29.3565C57.0139 29.3807 57.0546 29.3971 57.0972 29.4047L57.4811 29.5455V29.7214H55.4569V29.5807L55.8408 29.4399H55.9455C55.9804 29.4047 55.9804 29.3696 55.9804 29.2992C55.9826 29.2386 55.9706 29.1784 55.9455 29.1233L55.8408 28.7715L55.4569 27.6808H53.5374L53.1186 28.7715C53.0781 28.8911 53.0315 29.0085 52.979 29.1233C52.9509 29.1899 52.939 29.2622 52.9441 29.3344C52.9425 29.3534 52.9447 29.3726 52.9507 29.3908C52.9567 29.4089 52.9663 29.4257 52.979 29.4399H53.0837L53.4676 29.5455V29.7566H51.7575V29.5807L52.1763 29.4399C52.2461 29.4047 52.3508 29.3696 52.3857 29.2992C52.4586 29.2026 52.5173 29.096 52.5602 28.9826L54.5844 24.0923L54.9334 23.9868ZM53.6421 27.2587H55.2824L54.5146 25.0422L53.6421 27.2587ZM60.4127 29.6862H59.3308V29.5807L59.9241 29.4047C59.9939 29.3696 59.9939 29.3344 59.9939 29.264C60.0256 29.0073 60.0372 28.7485 60.0288 28.49V24.4793H58.5979L58.2489 25.5348H58.1093L58.0046 24.1275H62.8558L62.6115 25.4996H62.4719L62.1927 24.4089H60.7966V29.1937C60.7966 29.264 60.8664 29.2992 60.9362 29.3344L61.4947 29.5103V29.6862H60.3778M65.1243 24.0923H68.021L67.7767 25.3237H67.6371L67.3928 24.3738H65.5431V26.5902H66.8344C66.9042 26.5902 66.9391 26.555 66.974 26.4847L67.1136 25.9218H67.323C67.2881 26.3088 67.2881 26.5902 67.2881 26.7661C67.2863 27.0363 67.298 27.3063 67.323 27.5753H67.1136L66.974 27.0476C66.9391 26.9772 66.9042 26.942 66.8344 26.942H65.5431V29.2992H67.4626L67.9512 28.2789H68.1257L68.021 29.6862H64.182V29.5807L64.6706 29.4047C64.6983 29.4047 64.725 29.3936 64.7446 29.3738C64.7643 29.354 64.7753 29.3272 64.7753 29.2992C64.7696 29.1808 64.7813 29.0623 64.8102 28.9474V24.8663C64.7835 24.775 64.7717 24.6799 64.7753 24.5848C64.7753 24.5575 64.769 24.5306 64.7569 24.5062C64.7448 24.4817 64.7272 24.4605 64.7055 24.4441L64.182 24.2682V24.1275H65.1592" fill="white"/>
<path id="Vector_3" d="M30.4334 26.9772C30.8545 27.0783 31.2259 27.3279 31.4805 27.6808V27.7511C30.8173 27.8215 29.7354 27.329 28.828 27.1179C21.9527 25.6402 13.9256 29.8269 7.57373 26.168H7.60862C14.5538 29.5806 22.9648 24.4441 30.4683 27.0123M73.9542 27.0123C73.5331 27.1135 73.1617 27.3631 72.9071 27.716V27.7863C73.5703 27.8567 74.6522 27.3642 75.5596 27.1531C82.4349 25.6754 90.462 29.8621 96.8139 26.2032H96.779C89.8338 29.6158 81.4228 24.4792 73.9192 27.0475" fill="white"/>
</g>
</g>
</svg>
