<svg width="176" height="50" viewBox="0 0 176 50" fill="none" xmlns="http://www.w3.org/2000/svg">
<path d="M16.0879 1.52105L24.9213 25.9352C25.1455 26.5942 25.4397 27.227 25.7988 27.8223C26.1104 28.1701 26.5177 28.4164 26.9688 28.5299L28.8408 29.1196V29.9453H18.7204V29.1196L20.5924 28.5299L21.1773 28.2351C21.2568 28.0698 21.2969 27.888 21.2944 27.7043C21.2842 27.3441 21.2251 26.987 21.1188 26.6429C21.0018 26.2301 20.7678 25.6403 20.5338 24.9327L18.6619 19.5663H9.06793L6.96194 24.8737C6.66944 25.6403 6.49394 26.2301 6.31844 26.7018C6.17624 27.0174 6.09675 27.358 6.08444 27.7043C6.07638 27.8002 6.08778 27.8967 6.11795 27.9879C6.14813 28.0792 6.19645 28.1633 6.25995 28.2351C6.4349 28.3694 6.63334 28.4695 6.84495 28.5299L8.65842 29.0607V29.9453H0.117495L0.000488281 29.1196L2.04797 28.471C2.47299 28.336 2.85597 28.0922 3.15946 27.7633C3.45843 27.2559 3.7129 26.7231 3.91997 26.1711L14.0404 1.81591L16.0879 1.52105ZM9.76993 17.7382H17.9599L14.0989 6.7695L9.76993 17.7382ZM55.9846 1.93386H63.2971V2.75946L60.8401 3.58505C60.6953 3.61375 60.5666 3.69653 60.4798 3.81683C60.393 3.93713 60.3545 4.08605 60.3721 4.23374C60.3136 5.11831 60.3136 6.23877 60.3136 7.53614V23.7533C60.3136 25.3455 60.3136 26.6429 60.3721 27.7633C60.4306 28.8838 60.5476 28.2351 60.8985 28.353L63.2971 29.1196V29.9453H53.7616L53.6446 29.1196L55.9261 28.412C56.0756 28.3633 56.2065 28.2691 56.3008 28.1424C56.3951 28.0157 56.4481 27.8627 56.4526 27.7043C56.4526 26.6429 56.5111 25.3455 56.5111 23.7533V6.47464L46.6247 29.9453L45.2207 30.0632L35.3343 6.47464V27.7043C35.3464 27.8605 35.4023 28.0099 35.4955 28.1352C35.5888 28.2605 35.7154 28.3565 35.8607 28.412L38.0837 29.1196V29.9453H30.0693V29.1196L32.4678 28.353C32.6113 28.3221 32.743 28.25 32.8468 28.1454C32.9506 28.0407 33.0221 27.908 33.0528 27.7633V4.23374C33.045 4.08318 32.9897 3.93906 32.895 3.82237C32.8003 3.70569 32.6711 3.62254 32.5262 3.58505L30.0693 2.75946V1.93386H37.6157L46.8586 23.8712L55.9846 1.93386ZM71.6625 15.5562C71.6625 19.9201 72.54 23.2815 74.2365 25.5814C75.933 27.8812 78.5654 29.0017 81.8999 29.0017C85.2344 29.0017 87.6914 27.9402 89.2709 25.8762C90.8503 23.8122 91.6108 20.4509 91.6108 16.028C91.6108 11.6052 90.7918 8.53865 89.0954 6.29774C87.3989 4.05683 84.8249 2.87739 81.3149 2.87739C77.8049 2.87739 75.465 3.93889 73.944 6.06186C72.423 8.18482 71.6625 11.3103 71.6625 15.5562ZM95.9398 15.3203C95.9398 19.9201 94.6528 23.6353 92.0789 26.4659C89.5049 29.2376 85.8779 30.6529 81.1979 30.6529C76.518 30.6529 73.359 29.3555 70.902 26.7608C68.445 24.166 67.275 20.6867 67.275 16.2049C67.275 11.7231 68.6205 7.94893 71.1945 5.29522C73.7685 2.64151 77.454 1.2262 82.0169 1.2262C86.5799 1.2262 89.9144 2.52357 92.3128 5.05933C94.7113 7.5951 95.9398 10.9565 95.9398 15.3203ZM106.821 23.7533V25.9352C106.808 26.5059 106.827 27.0769 106.879 27.6454C106.879 28.0582 107.055 28.353 107.406 28.412L109.57 29.1196V29.9453H99.9763V29.1196L102.433 28.353C102.569 28.319 102.692 28.2447 102.786 28.1395C102.88 28.0344 102.941 27.9034 102.96 27.7633V4.23374C102.901 3.87991 102.784 3.64402 102.433 3.58505L100.035 2.75946V1.93386H110.857C113.899 1.93386 116.239 2.52357 117.702 3.703C118.468 4.26859 119.084 5.01736 119.492 5.88201C119.9 6.74667 120.089 7.70011 120.042 8.65659C120.123 10.4094 119.561 12.131 118.462 13.4922C117.169 14.8841 115.502 15.8674 113.665 16.3229C114.484 17.6202 115.303 18.8586 116.005 20.0381C116.707 21.2175 117.351 22.3379 117.994 23.3405L119.632 25.9942C120.048 26.6405 120.539 27.2344 121.095 27.7633C121.28 27.9899 121.497 28.1885 121.738 28.353L122.44 28.7658L123.201 29.0607L124.137 29.2966V30.1811L121.738 30.358H120.276L119.164 30.2401L118.345 29.9453L117.526 29.4145C116.915 28.9079 116.382 28.3115 115.947 27.6454C115.42 26.8787 114.835 25.9352 114.309 24.9916L112.495 21.8072C111.91 20.6867 111.267 19.6253 110.565 18.5048L110.038 17.7972C109.913 17.6114 109.754 17.4513 109.57 17.3254L108.985 17.0895H106.762L106.821 23.7533ZM106.821 15.3203H109.044C111.325 15.3203 113.022 14.8486 114.075 13.8461C115.128 12.8436 115.654 11.3693 115.654 9.24631C115.654 7.12334 115.186 5.76699 114.133 4.82345C113.08 3.87991 111.559 3.4671 109.395 3.4671H108.166L106.821 3.58505V15.3203ZM130.455 1.99282H144.67L144.787 2.11077L143.617 8.30276L142.857 8.47967L141.628 3.82093H132.444V14.7896H138.879C139.23 14.7896 139.405 14.6127 139.522 14.2589L140.224 11.6052H141.277C141.277 13.4922 141.219 14.8486 141.219 15.7332C141.219 16.6177 141.277 17.9741 141.277 19.8022L140.224 19.9201L139.522 17.1485C139.405 16.7946 139.23 16.6177 138.879 16.6177H132.444V23.9302C132.444 25.4045 132.444 26.8787 132.502 28.294H142.037L144.436 23.2225L145.313 23.0456L144.904 30.0042L144.729 30.1811H125.599V29.3555L128.056 28.5889C128.196 28.5632 128.324 28.4914 128.419 28.3846C128.514 28.2779 128.572 28.1424 128.583 27.9992V4.23374C128.6 4.08605 128.562 3.93713 128.475 3.81683C128.388 3.69653 128.259 3.61375 128.115 3.58505L125.658 2.75946V1.93386H130.572M162.278 1.46208L171.053 25.8762C171.278 26.5353 171.572 27.168 171.931 27.7633C172.252 28.0988 172.656 28.3428 173.101 28.471L174.973 29.0607V29.8863H164.735V29.0607L166.607 28.471C166.827 28.4341 167.031 28.3313 167.192 28.1761C167.256 28.1043 167.304 28.0202 167.334 27.929C167.364 27.8377 167.376 27.7412 167.368 27.6454C167.363 27.279 167.284 26.9176 167.134 26.5839C167.017 26.1711 166.783 25.5814 166.549 24.8737L164.677 19.5073H155.083L152.977 24.8147C152.743 25.5814 152.509 26.1711 152.333 26.6429C152.191 26.9584 152.112 27.299 152.099 27.6454C152.091 27.7412 152.103 27.8377 152.133 27.929C152.163 28.0202 152.211 28.1043 152.275 28.1761L152.86 28.471L154.673 29.0017V29.8863H146.132V29.0607L148.121 28.412C148.546 28.2771 148.929 28.0332 149.233 27.7043C149.532 27.1969 149.786 26.6642 149.993 26.1121L160.114 1.81591L162.278 1.46208ZM155.785 17.7382H163.975L160.114 6.7695L155.785 17.7382Z" fill="#374955"/>
<path d="M62.3612 40.4422H67.2167L66.8072 42.5062H66.5732L66.1637 40.9139H63.0632V44.6292H65.2277C65.3447 44.6292 65.4032 44.5702 65.4617 44.4522L65.6957 43.5087H66.0467V46.2803H65.6957L65.4617 45.3958C65.4032 45.2778 65.3447 45.2189 65.2277 45.2189H63.0632V49.1699H66.2807L67.0997 47.4598H67.3922L67.2752 49.8186H60.7817V49.5827L61.6007 49.2879C61.6473 49.2879 61.6919 49.2693 61.7248 49.2361C61.7577 49.2029 61.7762 49.1579 61.7762 49.111C61.7666 48.9126 61.7864 48.7138 61.8347 48.5213V41.6806C61.79 41.5276 61.7703 41.3682 61.7762 41.2088C61.7762 41.163 61.7657 41.1179 61.7454 41.0769C61.725 41.036 61.6956 41.0004 61.6592 40.9729L60.7817 40.6781V40.4422H62.4197M74.8216 41.0319C74.4123 40.8684 73.9749 40.7882 73.5346 40.796C73.0328 40.7601 72.5347 40.9066 72.1306 41.2088C71.9622 41.3641 71.8321 41.557 71.7508 41.772C71.6696 41.987 71.6394 42.2183 71.6626 42.4472C71.6653 42.7126 71.7251 42.9742 71.8381 43.2138C71.9446 43.4295 72.1061 43.6127 72.3061 43.7446C72.5163 43.9352 72.7527 44.0941 73.0081 44.2163L73.8271 44.6292L74.7046 45.0419C75.01 45.162 75.2885 45.3425 75.5236 45.5727C75.7619 45.7537 75.9444 45.9991 76.0501 46.2803C76.2218 46.585 76.3031 46.933 76.2841 47.2829C76.3015 47.6813 76.213 48.0772 76.0279 48.4296C75.8428 48.7821 75.5677 49.0784 75.2311 49.2879C74.4245 49.7898 73.4872 50.0363 72.5401 49.9955C71.7482 49.9811 70.9615 49.8622 70.2002 49.6417H70.1417L70.4927 47.3418H70.7852L71.2531 49.2289C71.7186 49.4166 72.2143 49.5166 72.7156 49.5238C73.2617 49.5505 73.7999 49.3836 74.2366 49.052C74.4303 48.9125 74.5856 48.7256 74.6879 48.509C74.7902 48.2924 74.8363 48.0531 74.8216 47.8136C74.8253 47.5475 74.765 47.2845 74.6461 47.047C74.5234 46.8258 74.3653 46.6265 74.1781 46.4573L73.4761 46.0445L72.6571 45.6906L71.7211 45.2189C71.4335 45.0977 71.1744 44.9168 70.9606 44.6881C70.7207 44.4709 70.5224 44.211 70.3757 43.9215C70.2504 43.5822 70.1908 43.2219 70.2002 42.86C70.1856 42.4849 70.27 42.1126 70.4447 41.7811C70.6194 41.4496 70.8782 41.1708 71.1947 40.9729C71.9569 40.5248 72.8281 40.3001 73.7101 40.3242C74.4365 40.3477 75.1601 40.4265 75.8746 40.5601H75.9331L75.5236 42.6831H75.2896L74.8216 41.0319ZM82.0756 49.8186H80.2621V49.5827L81.2566 49.2879C81.3736 49.2289 81.4321 49.1699 81.4321 49.052V41.0319H79.0921L78.5071 42.801H78.2146L78.0391 40.4422H86.2291L85.8196 42.7421H85.5271L85.1176 40.9139H82.7191V47.6367C82.705 48.07 82.7246 48.5038 82.7776 48.9341C82.7776 49.052 82.8361 49.111 82.9531 49.1699L83.9476 49.4648V49.7596H82.0756M92.079 40.2063L95.004 48.4623C95.0802 48.6808 95.1996 48.8814 95.355 49.052C95.3942 49.1136 95.4456 49.1663 95.506 49.2069C95.5664 49.2475 95.6345 49.2751 95.706 49.2879L96.3495 49.5238V49.8186H92.9565V49.5827L93.6 49.3469H93.7755C93.834 49.2879 93.834 49.2289 93.834 49.111C93.8377 49.0094 93.8176 48.9084 93.7755 48.8161L93.6 48.2264L92.9565 46.3983H89.739L89.037 48.2264C88.9692 48.4269 88.8911 48.6238 88.803 48.8161C88.756 48.9277 88.736 49.049 88.7445 49.1699C88.7418 49.2019 88.7457 49.2341 88.7557 49.2645C88.7658 49.2949 88.7819 49.3229 88.803 49.3469H88.9785L89.622 49.5238V49.8776H86.7555V49.5827L87.4575 49.3469C87.5745 49.2879 87.75 49.2289 87.8085 49.111C87.9307 48.9491 88.0293 48.7703 88.101 48.5802L91.494 40.3832L92.079 40.2063ZM89.9145 45.6906H92.664L91.377 41.9754L89.9145 45.6906ZM101.263 49.7596H99.45V49.5827L100.444 49.2879C100.561 49.2289 100.561 49.1699 100.561 49.052C100.614 48.6217 100.634 48.188 100.62 47.7546V41.0319H98.2215L97.6365 42.801H97.4025L97.227 40.4422H105.358L104.949 42.7421H104.715L104.247 40.9139H101.907V48.9341C101.907 49.052 102.024 49.111 102.141 49.1699L103.077 49.4648V49.7596H101.205M109.161 40.3832H114.016L113.607 42.4472H113.373L112.963 40.855H109.863V44.5702H112.027C112.144 44.5702 112.203 44.5112 112.261 44.3933L112.495 43.4497H112.846C112.788 44.0984 112.788 44.5702 112.788 44.865C112.785 45.3178 112.804 45.7705 112.846 46.2214H112.495L112.261 45.3368C112.203 45.2189 112.144 45.1599 112.027 45.1599H109.863V49.111H113.08L113.899 47.4008H114.192L114.016 49.7596H107.581V49.5827L108.4 49.2879C108.447 49.2879 108.492 49.2693 108.525 49.2361C108.557 49.2029 108.576 49.1579 108.576 49.111C108.566 48.9126 108.586 48.7138 108.634 48.5213V41.6806C108.59 41.5276 108.57 41.3682 108.576 41.2088C108.576 41.163 108.565 41.1179 108.545 41.0769C108.525 41.036 108.495 41.0004 108.459 40.9729L107.581 40.6781V40.4422H109.219" fill="#374955"/>
<path d="M51.0121 45.2188C51.7179 45.3884 52.3403 45.8067 52.767 46.3983V46.5162C51.6556 46.6341 49.842 45.8086 48.3211 45.4547C36.7966 42.9779 23.3418 49.9955 12.6948 43.8625H12.7533C24.3947 49.5827 38.4931 40.9729 51.0705 45.2778M123.961 45.2778C123.255 45.4474 122.633 45.8657 122.206 46.4572V46.5752C123.318 46.6931 125.131 45.8675 126.652 45.5137C138.176 43.0369 151.631 50.0545 162.278 43.9215H162.22C150.578 49.6417 136.48 41.0319 123.903 45.3368" fill="#374955"/>
</svg>
