<svg width="110" height="120" viewBox="0 0 110 120" fill="none" xmlns="http://www.w3.org/2000/svg">
<g id="AMOREA_logo">
<g id="Group 31">
<g id="Group">
<path id="Vector" d="M19.9632 58.0608C23.9851 57.8048 29.2135 57.9145 36.0506 58.0608C41.2059 58.1705 47.2387 58.2802 54.6608 58.2802C62.0829 58.2802 68.1523 58.1705 73.271 58.0608C80.1081 57.9145 85.3365 57.8048 89.3584 58.0608L86.8721 59.9986C83.289 59.9255 78.8284 59.9986 73.3075 60.1083C67.7866 60.218 61.7173 60.3642 54.6608 60.3642C47.6043 60.3642 41.3521 60.218 36.014 60.1083C30.676 59.9986 26.0326 59.9255 22.4495 59.9986L19.9632 58.0608ZM44.1309 14.5517L54.6608 29.1035L65.1907 14.5517L54.6608 -6.10352e-05L44.1309 14.5517ZM89.9799 48.8837C78.2434 49.103 66.4338 48.6643 54.6608 48.6643C42.8877 48.6643 31.1147 49.103 19.3417 48.8837L16.5264 52.7593H92.7952L89.9799 48.8837ZM57.9514 43.1068C55.2458 42.4487 54.0758 42.4487 51.3702 43.1068C48.8365 43.8183 46.176 43.9557 43.5824 43.509C41.3521 43.18 39.4509 43.2896 37.184 43.4359C34.9172 43.5821 32.8331 43.6553 30.1275 43.6553C27.9704 43.6553 25.5938 43.3628 23.4001 43.2531L20.8042 46.8362C32.1019 47.019 43.3631 46.6168 54.6608 46.6168C65.9585 46.6168 77.2562 47.019 88.5174 46.8362L85.9215 43.2531C83.7278 43.3628 81.3878 43.6553 79.194 43.6553C77.0003 43.6553 74.1119 43.509 72.1375 43.4359C70.1632 43.3628 68.006 43.18 65.7391 43.509C64.7128 43.6856 63.6728 43.7713 62.6314 43.7649C61.0492 43.7523 59.4757 43.5311 57.9514 43.1068ZM62.4485 38.4269C59.1945 38.4269 57.7686 36.5622 54.6608 36.5622C51.553 36.5622 50.2002 38.4269 46.873 38.4269C45.374 38.4269 44.3137 37.8784 43.2534 37.3666C42.1931 36.8547 41.6081 36.5622 40.6575 36.5622C38.4637 36.5622 36.8184 38.4269 34.0762 38.4269C32.5772 38.4269 31.5169 37.915 30.42 37.4031C29.7206 37.0338 28.9683 36.7748 28.1897 36.6353L24.8626 41.2787C26.581 41.3518 28.4091 41.5712 30.1275 41.5712C32.8697 41.5712 35.1731 41.4615 37.1109 41.3518C39.0487 41.2422 41.4618 41.1325 43.8749 41.4615C44.8176 41.6198 45.771 41.7054 46.7268 41.7175C48.137 41.6898 49.5379 41.4809 50.8949 41.0959C53.9661 40.3647 55.3555 40.3647 58.4267 41.0959C59.7956 41.4836 61.2089 41.6925 62.6314 41.7175C63.5749 41.7038 64.5161 41.6182 65.4467 41.4615C67.8598 41.1325 69.7976 41.2422 72.2472 41.3518C74.1485 41.4615 76.4519 41.5712 79.194 41.5712C80.9125 41.5712 82.7771 41.3518 84.4956 41.2787L81.1319 36.6353C80.3533 36.7748 79.601 37.0338 78.9016 37.4031C77.8413 37.915 76.7444 38.4269 75.2819 38.4269C72.5032 38.4269 70.8944 36.5622 68.7007 36.5622C67.7135 36.5622 66.9091 36.9644 66.0682 37.3666C65.2273 37.7687 63.9476 38.4269 62.4485 38.4269ZM53.3811 30.8585L42.8877 16.3433L29.506 34.8072L31.2975 35.5384C32.175 35.9406 33.0159 36.3794 34.0762 36.3794C36.3797 36.3794 37.9518 34.5147 40.6575 34.5147C42.0834 34.5147 43.1071 35.0266 44.1674 35.5384C45.2277 36.0503 45.8493 36.3794 46.873 36.3794C47.9395 36.3759 48.9907 36.1256 49.9442 35.6481L53.3811 30.8585ZM66.4704 16.3433L53.2349 34.5878L54.6608 34.5147C56.237 34.4822 57.7962 34.8468 59.1945 35.575C60.1973 36.1047 61.3145 36.3809 62.4485 36.3794C63.5089 36.3794 64.3498 35.9406 65.1907 35.5384C66.0316 35.1363 67.2382 34.5147 68.7007 34.5147C71.3697 34.5147 72.9419 36.3794 75.2819 36.3794C76.3056 36.3794 77.1831 35.9406 78.0606 35.5384C78.9381 35.1363 79.1941 35.0266 79.8156 34.8072L66.4704 16.3433ZM51.2239 13.4183C51.312 12.5632 51.714 11.7712 52.3522 11.1953C52.9904 10.6195 53.8195 10.3008 54.6791 10.3008C55.5387 10.3008 56.3677 10.6195 57.0059 11.1953C57.6441 11.7712 58.0461 12.5632 58.1342 13.4183C58.184 13.9019 58.1318 14.3905 57.9808 14.8527C57.8299 15.3148 57.5836 15.7401 57.2579 16.101C56.9322 16.462 56.5344 16.7505 56.0902 16.948C55.646 17.1455 55.1652 17.2476 54.6791 17.2476C54.1929 17.2476 53.7122 17.1455 53.2679 16.948C52.8237 16.7505 52.4259 16.462 52.1002 16.101C51.7746 15.7401 51.5283 15.3148 51.3773 14.8527C51.2264 14.3905 51.1741 13.9019 51.2239 13.4183ZM80.1447 13.0892C79.8554 13.0892 79.5727 13.175 79.3322 13.3357C79.0917 13.4964 78.9042 13.7248 78.7935 13.992C78.6828 14.2593 78.6539 14.5533 78.7103 14.837C78.7667 15.1207 78.906 15.3813 79.1105 15.5859C79.3151 15.7904 79.5757 15.9297 79.8594 15.9861C80.143 16.0425 80.4371 16.0136 80.7043 15.9029C80.9716 15.7922 81.2 15.6047 81.3607 15.3642C81.5214 15.1237 81.6072 14.841 81.6072 14.5517C81.6072 14.1638 81.4531 13.7918 81.1788 13.5176C80.9045 13.2433 80.5326 13.0892 80.1447 13.0892ZM29.1769 13.0892C28.8876 13.0892 28.6049 13.175 28.3644 13.3357C28.1239 13.4964 27.9364 13.7248 27.8257 13.992C27.715 14.2593 27.6861 14.5533 27.7425 14.837C27.7989 15.1207 27.9382 15.3813 28.1428 15.5859C28.3473 15.7904 28.6079 15.9297 28.8916 15.9861C29.1753 16.0425 29.4693 16.0136 29.7366 15.9029C30.0038 15.7922 30.2322 15.6047 30.3929 15.3642C30.5536 15.1237 30.6394 14.841 30.6394 14.5517C30.6394 14.1638 30.4853 13.7918 30.211 13.5176C29.9368 13.2433 29.5648 13.0892 29.1769 13.0892ZM50.4561 80.4003C52.1746 81.1316 53.4542 81.5337 54.6608 81.5337C55.8673 81.5337 57.147 81.1316 58.8654 80.4003L59.7064 82.265C57.732 83.1425 56.233 83.5812 54.6608 83.5812C53.0886 83.5812 51.5896 83.1425 49.6152 82.265L50.4561 80.4003ZM82.2287 63.6548L79.7059 65.6657L78.3897 65.7389C77.0735 65.7754 75.5013 65.8851 73.5635 65.8851C71.8916 65.9115 70.2225 65.7396 68.591 65.3732C67.556 65.1658 66.5021 65.0678 65.4467 65.0807C64.5326 65.0807 63.6551 65.4829 62.7776 65.8485C61.7639 66.3538 60.6552 66.6403 59.5236 66.6895C58.5637 66.6818 57.6165 66.4699 56.7448 66.0679C55.0995 65.4464 54.222 65.4464 52.5767 66.0679C51.7051 66.4699 50.7579 66.6818 49.798 66.6895C48.6664 66.6403 47.5577 66.3538 46.544 65.8485C45.6665 65.4829 44.789 65.0807 43.8749 65.0807C42.8195 65.0697 41.7658 65.1677 40.7306 65.3732C39.0995 65.742 37.4301 65.9139 35.7581 65.8851C33.8203 65.8851 32.2481 65.7754 30.9319 65.7389L29.6156 65.6657L27.0928 63.6548C28.1531 63.5086 29.3963 63.5817 31.0416 63.6548C32.6869 63.7279 33.7837 63.8011 35.7581 63.8011C37.3053 63.8272 38.8505 63.68 40.365 63.3623C41.5312 63.1211 42.7207 63.0107 43.9115 63.0332C45.2277 63.0332 46.288 63.5086 47.3483 63.9473C48.4086 64.3861 48.9936 64.642 49.798 64.642C50.506 64.6269 51.2032 64.465 51.8455 64.1667C54.0027 63.3257 55.3189 63.3257 57.5126 64.1667C58.1404 64.4695 58.8267 64.6318 59.5236 64.642C60.3279 64.642 61.1689 64.2764 61.9732 63.9473C62.7776 63.6182 64.0938 63.0332 65.4467 63.0332C66.6253 63.0107 67.8027 63.1211 68.9566 63.3623C70.471 63.68 72.0163 63.8272 73.5635 63.8011C75.5744 63.8011 77.0734 63.7279 78.28 63.6548C79.4865 63.5817 81.1684 63.5086 82.2287 63.6548ZM74.77 69.5413L71.9182 71.7716L70.346 71.6619C69.6875 71.5428 69.0396 71.3717 68.4082 71.1501C67.3955 70.7926 66.3364 70.5832 65.2638 70.5285C64.3439 70.606 63.4487 70.8671 62.6314 71.2963C61.5345 71.7716 60.4011 72.2835 58.7558 72.2835C58.0483 72.2811 57.3455 72.1702 56.6717 71.9544C55.3637 71.6248 53.9944 71.6248 52.6864 71.9544C51.9993 72.1668 51.2849 72.2776 50.5658 72.2835C48.9205 72.2835 47.7871 71.7716 46.6902 71.2963C45.8751 70.8614 44.9788 70.6 44.0577 70.5285C42.9857 70.5872 41.9272 70.7964 40.9134 71.1501C40.282 71.3717 39.634 71.5428 38.9756 71.6619L37.4034 71.7716L34.5516 69.5413L35.9409 69.6145C36.8638 69.7255 37.7967 69.7255 38.7197 69.6145C39.2519 69.5147 39.7771 69.3803 40.2918 69.2123C41.507 68.7486 42.7939 68.5012 44.0943 68.481C45.5202 68.5176 46.5074 68.9563 47.5312 69.3951C48.4708 69.8842 49.5072 70.1589 50.5658 70.1994C51.1207 70.1878 51.6726 70.1142 52.2111 69.9801C53.8273 69.542 55.5309 69.542 57.147 69.9801C57.6726 70.1168 58.2127 70.1905 58.7558 70.1994C59.8143 70.1589 60.8508 69.8842 61.7904 69.3951C62.8142 68.9563 63.8014 68.5176 65.2273 68.481C66.5277 68.5012 67.8146 68.7486 69.0297 69.2123C69.5445 69.3803 70.0697 69.5147 70.6019 69.6145C71.5371 69.7257 72.4821 69.7257 73.4172 69.6145L74.77 69.5413ZM67.0554 75.5741L65.337 76.9635L64.8982 76.7441C64.3527 76.5255 63.7669 76.4258 63.1798 76.4516C62.2763 76.4749 61.3894 76.6998 60.5839 77.1097C58.7247 77.9587 56.7047 78.3981 54.6608 78.3981C52.6169 78.3981 50.5969 77.9587 48.7377 77.1097C47.934 76.695 47.046 76.4699 46.1418 76.4516C45.5663 76.4216 44.9915 76.5216 44.4599 76.7441L43.9846 76.9635L42.2662 75.5741C42.7142 75.3026 43.1781 75.0584 43.6556 74.8429C44.4404 74.5071 45.2885 74.345 46.1418 74.3675C47.6043 74.3675 48.5183 74.7697 49.5786 75.245C51.1816 75.9688 52.9203 76.3431 54.6791 76.3431C56.4379 76.3431 58.1765 75.9688 59.7795 75.245C60.8243 74.6793 61.9917 74.378 63.1798 74.3675C64.0331 74.345 64.8812 74.5071 65.666 74.8429C66.1507 75.0431 66.6159 75.2879 67.0554 75.5741Z" fill="white"/>
<path id="Vector_2" d="M10.0546 89.9431L15.5755 105.08C15.7156 105.488 15.8995 105.881 16.1239 106.25C16.3187 106.465 16.5733 106.618 16.8552 106.689L18.0252 107.054V107.566H11.6999V107.054L12.8699 106.689L13.2355 106.506C13.2852 106.403 13.3103 106.291 13.3087 106.177C13.3023 105.953 13.2654 105.732 13.199 105.519C13.1258 105.263 12.9796 104.897 12.8333 104.458L11.6634 101.131H5.66715L4.3509 104.422C4.16809 104.897 4.0584 105.263 3.94872 105.555C3.85985 105.751 3.81016 105.962 3.80247 106.177C3.79743 106.236 3.80456 106.296 3.82341 106.353C3.84227 106.409 3.87248 106.461 3.91216 106.506C4.02151 106.589 4.14553 106.651 4.27779 106.689L5.41121 107.018V107.566H0.073129L0 107.054L1.27968 106.652C1.54531 106.568 1.78468 106.417 1.97436 106.213C2.16121 105.899 2.32026 105.568 2.44967 105.226L8.77494 90.1259L10.0546 89.9431ZM6.1059 99.9977H11.2246L8.81149 93.1971L6.1059 99.9977ZM34.9901 90.199H39.5604V90.7109L38.0247 91.2227C37.9342 91.2405 37.8538 91.2919 37.7996 91.3664C37.7453 91.441 37.7213 91.5334 37.7322 91.6249C37.6957 92.1734 37.6957 92.868 37.6957 93.6724V103.727C37.6957 104.714 37.6957 105.519 37.7322 106.213C37.7688 106.908 37.8419 106.506 38.0613 106.579L39.5604 107.054V107.566H33.6007L33.5276 107.054L34.9535 106.615C35.047 106.585 35.1288 106.527 35.1877 106.448C35.2466 106.37 35.2798 106.275 35.2826 106.177C35.2826 105.519 35.3191 104.714 35.3191 103.727V93.0143L29.1401 107.566L28.2626 107.639L22.0836 93.0143V106.177C22.0912 106.274 22.1261 106.366 22.1844 106.444C22.2427 106.522 22.3218 106.581 22.4127 106.615L23.802 107.054V107.566H18.793V107.054L20.292 106.579C20.3818 106.56 20.4641 106.515 20.5289 106.45C20.5938 106.385 20.6385 106.303 20.6577 106.213V91.6249C20.6528 91.5316 20.6183 91.4422 20.5591 91.3699C20.4999 91.2975 20.4191 91.246 20.3286 91.2227L18.793 90.7109V90.199H23.5095L29.2864 103.8L34.9901 90.199ZM44.7887 98.6449C44.7887 101.35 45.3372 103.435 46.3975 104.86C47.4578 106.286 49.1031 106.981 51.1871 106.981C53.2712 106.981 54.8068 106.323 55.794 105.043C56.7812 103.764 57.2565 101.68 57.2565 98.9374C57.2565 96.1952 56.7446 94.294 55.6843 92.9046C54.624 91.5152 53.0153 90.784 50.8215 90.784C48.6278 90.784 47.1653 91.4421 46.2147 92.7584C45.2641 94.0746 44.7887 96.0124 44.7887 98.6449ZM59.9621 98.4986C59.9621 101.35 59.1577 103.654 57.549 105.409C55.9402 107.127 53.6734 108.005 50.7484 108.005C47.8234 108.005 45.8491 107.2 44.3134 105.592C42.7778 103.983 42.0466 101.826 42.0466 99.0471C42.0466 96.2683 42.8875 93.9283 44.4963 92.283C46.105 90.6377 48.4084 89.7603 51.2603 89.7603C54.1121 89.7603 56.1962 90.5646 57.6952 92.1368C59.1943 93.709 59.9621 95.793 59.9621 98.4986ZM66.7626 103.727V105.08C66.7545 105.434 66.7668 105.788 66.7992 106.14C66.7992 106.396 66.9089 106.579 67.1283 106.615L68.4811 107.054V107.566H62.4849V107.054L64.0205 106.579C64.1056 106.558 64.1824 106.512 64.2411 106.447C64.2997 106.381 64.3375 106.3 64.3496 106.213V91.6249C64.313 91.4056 64.2399 91.2593 64.0205 91.2227L62.5214 90.7109V90.199H69.2855C71.1867 90.199 72.6492 90.5646 73.5632 91.2959C74.0424 91.6465 74.4269 92.1108 74.6822 92.6469C74.9375 93.1829 75.0555 93.7741 75.0257 94.3671C75.0765 95.4539 74.7251 96.5212 74.0386 97.3652C73.2302 98.2281 72.1887 98.8378 71.0404 99.1202C71.5523 99.9246 72.0642 100.692 72.5029 101.424C72.9417 102.155 73.3439 102.85 73.7461 103.471L74.7698 105.116C75.0297 105.517 75.3366 105.885 75.6839 106.213C75.7997 106.354 75.9351 106.477 76.086 106.579L76.5248 106.835L77.0001 107.018L77.5851 107.164V107.712L76.086 107.822H75.172L74.4773 107.749L73.9654 107.566L73.4536 107.237C73.0714 106.923 72.7386 106.553 72.4664 106.14C72.1373 105.665 71.7717 105.08 71.4426 104.495L70.3092 102.52C69.9436 101.826 69.5414 101.168 69.1026 100.473L68.7736 100.034C68.6955 99.9191 68.5963 99.8198 68.4811 99.7417L68.1155 99.5955H66.7261L66.7626 103.727ZM66.7626 98.4986H68.152C69.578 98.4986 70.6383 98.2061 71.2964 97.5846C71.9545 96.963 72.2836 96.049 72.2836 94.7327C72.2836 93.4165 71.9911 92.5755 71.3329 91.9906C70.6748 91.4056 69.7242 91.1496 68.3714 91.1496H67.6036L66.7626 91.2227V98.4986ZM81.5338 90.2356H90.4184L90.4916 90.3087L89.7603 94.1477L89.285 94.2574L88.5172 91.369H82.7769V98.1696H86.7988C87.0182 98.1696 87.1278 98.0599 87.201 97.8405L87.6397 96.1952H88.2978C88.2978 97.3652 88.2613 98.2061 88.2613 98.7546C88.2613 99.303 88.2978 100.144 88.2978 101.277L87.6397 101.35L87.201 99.6321C87.1278 99.4127 87.0182 99.303 86.7988 99.303H82.7769V103.837C82.7769 104.751 82.7769 105.665 82.8135 106.542H88.7731L90.2722 103.398L90.8206 103.288L90.5647 107.603L90.455 107.712H78.4991V107.2L80.0348 106.725C80.1223 106.709 80.2021 106.665 80.2617 106.598C80.3212 106.532 80.3572 106.448 80.3638 106.36V91.6249C80.3748 91.5334 80.3507 91.441 80.2965 91.3664C80.2422 91.2919 80.1618 91.2405 80.0713 91.2227L78.5357 90.7109V90.199H81.6069M101.424 89.9065L106.908 105.043C107.048 105.452 107.232 105.844 107.456 106.213C107.657 106.421 107.91 106.573 108.188 106.652L109.358 107.018V107.53H102.959V107.018L104.129 106.652C104.267 106.629 104.394 106.565 104.495 106.469C104.535 106.425 104.565 106.373 104.584 106.316C104.603 106.259 104.61 106.2 104.605 106.14C104.602 105.913 104.552 105.689 104.458 105.482C104.385 105.226 104.239 104.86 104.093 104.422L102.923 101.095H96.9265L95.6103 104.385C95.464 104.86 95.3178 105.226 95.2081 105.519C95.1192 105.714 95.0695 105.925 95.0618 106.14C95.0568 106.2 95.0639 106.259 95.0828 106.316C95.1017 106.373 95.1318 106.425 95.1715 106.469L95.5371 106.652L96.6706 106.981V107.53H91.3325V107.018L92.5756 106.615C92.8412 106.532 93.0806 106.381 93.2703 106.177C93.4571 105.862 93.6162 105.532 93.7456 105.19L100.071 90.1259L101.424 89.9065ZM97.3653 99.9977H102.484L100.071 93.1971L97.3653 99.9977Z" fill="white"/>
<path id="Vector_3" d="M38.9754 114.074H42.0101L41.7542 115.354H41.6079L41.352 114.367H39.4142V116.67H40.767C40.8401 116.67 40.8767 116.634 40.9133 116.56L41.0595 115.975H41.2789V117.694H41.0595L40.9133 117.145C40.8767 117.072 40.8401 117.036 40.767 117.036H39.4142V119.485H41.4251L41.937 118.425H42.1198L42.0467 119.888H37.9883V119.741L38.5001 119.559C38.5292 119.559 38.5571 119.547 38.5777 119.526C38.5983 119.506 38.6098 119.478 38.6098 119.449C38.6038 119.326 38.6162 119.203 38.6464 119.083V114.842C38.6185 114.747 38.6061 114.648 38.6098 114.549C38.6098 114.521 38.6032 114.493 38.5905 114.468C38.5778 114.442 38.5594 114.42 38.5367 114.403L37.9883 114.22V114.074H39.012M46.7632 114.44C46.5074 114.338 46.234 114.289 45.9588 114.294C45.6452 114.271 45.3339 114.362 45.0813 114.549C44.976 114.646 44.8948 114.765 44.844 114.899C44.7932 115.032 44.7743 115.175 44.7889 115.317C44.7905 115.482 44.8279 115.644 44.8985 115.793C44.9651 115.926 45.066 116.04 45.191 116.122C45.3224 116.24 45.4702 116.338 45.6298 116.414L46.1417 116.67L46.6901 116.926C46.881 117 47.055 117.112 47.202 117.255C47.3509 117.367 47.465 117.519 47.531 117.694C47.6383 117.883 47.6891 118.098 47.6773 118.315C47.6881 118.562 47.6328 118.808 47.5171 119.026C47.4014 119.245 47.2295 119.429 47.0191 119.559C46.515 119.87 45.9292 120.023 45.3373 119.997C44.8423 119.988 44.3506 119.915 43.8748 119.778H43.8382L44.0576 118.352H44.2404L44.5329 119.522C44.8238 119.638 45.1337 119.7 45.447 119.705C45.7883 119.721 46.1246 119.618 46.3976 119.412C46.5186 119.326 46.6157 119.21 46.6796 119.076C46.7436 118.941 46.7724 118.793 46.7632 118.644C46.7655 118.479 46.7278 118.316 46.6535 118.169C46.5768 118.032 46.478 117.908 46.361 117.804L45.9223 117.548L45.4104 117.328L44.8254 117.036C44.6456 116.961 44.4837 116.848 44.3501 116.707C44.2001 116.572 44.0762 116.411 43.9845 116.231C43.9062 116.021 43.8689 115.798 43.8748 115.573C43.8657 115.341 43.9184 115.11 44.0276 114.904C44.1368 114.699 44.2986 114.526 44.4964 114.403C44.9727 114.125 45.5172 113.986 46.0685 114.001C46.5225 114.016 46.9747 114.064 47.4213 114.147H47.4579L47.202 115.464H47.0557L46.7632 114.44ZM51.2969 119.888H50.1635V119.741L50.7851 119.559C50.8582 119.522 50.8948 119.485 50.8948 119.412V114.44H49.4323L49.0666 115.537H48.8838L48.7741 114.074H53.8929L53.6369 115.5H53.4541L53.1982 114.367H51.6991V118.535C51.6903 118.803 51.7025 119.072 51.7357 119.339C51.7357 119.412 51.7722 119.449 51.8454 119.485L52.4669 119.668V119.851H51.2969M57.5491 113.928L59.3772 119.047C59.4248 119.182 59.4994 119.306 59.5966 119.412C59.6211 119.45 59.6532 119.483 59.691 119.508C59.7287 119.533 59.7713 119.551 59.8159 119.559L60.2181 119.705V119.888H58.0975V119.741L58.4997 119.595H58.6094C58.6459 119.559 58.646 119.522 58.646 119.449C58.6483 119.386 58.6357 119.323 58.6094 119.266L58.4997 118.9L58.0975 117.767H56.0866L55.6478 118.9C55.6054 119.025 55.5566 119.147 55.5016 119.266C55.4722 119.335 55.4597 119.41 55.465 119.485C55.4634 119.505 55.4657 119.525 55.472 119.544C55.4783 119.563 55.4884 119.58 55.5016 119.595H55.6113L56.0135 119.705V119.924H54.2219V119.741L54.6607 119.595C54.7338 119.559 54.8435 119.522 54.88 119.449C54.9564 119.348 55.018 119.238 55.0628 119.12L57.1835 114.038L57.5491 113.928ZM56.1963 117.328H57.9147L57.1103 115.025L56.1963 117.328ZM63.2893 119.851H62.1559V119.741L62.7775 119.559C62.8506 119.522 62.8506 119.485 62.8506 119.412C62.8838 119.145 62.896 118.877 62.8872 118.608V114.44H61.3881L61.0225 115.537H60.8762L60.7666 114.074H65.8487L65.5928 115.5H65.4465L65.154 114.367H63.6915V119.339C63.6915 119.412 63.7646 119.449 63.8378 119.485L64.4228 119.668V119.851H63.2528M68.2252 114.038H71.2599L71.004 115.317H70.8577L70.6018 114.33H68.664V116.634H70.0168C70.0899 116.634 70.1265 116.597 70.1631 116.524L70.3093 115.939H70.5287C70.4921 116.341 70.4921 116.634 70.4921 116.816C70.4902 117.097 70.5025 117.378 70.5287 117.657H70.3093L70.1631 117.109C70.1265 117.036 70.0899 116.999 70.0168 116.999H68.664V119.449H70.6749L71.1868 118.389H71.3696L71.2599 119.851H67.2381V119.741L67.7499 119.559C67.779 119.559 67.8069 119.547 67.8275 119.526C67.8481 119.506 67.8596 119.478 67.8596 119.449C67.8536 119.326 67.866 119.203 67.8962 119.083V114.842C67.8683 114.747 67.8559 114.648 67.8596 114.549C67.8596 114.521 67.853 114.493 67.8403 114.468C67.8276 114.442 67.8092 114.42 67.7865 114.403L67.2381 114.22V114.074H68.2618" fill="white"/>
<path id="Vector_4" d="M31.8819 117.036C32.323 117.141 32.712 117.4 32.9787 117.767V117.84C32.284 117.913 31.1506 117.401 30.2 117.182C22.9972 115.646 14.5879 119.997 7.93359 116.195H7.97015C15.246 119.741 24.0575 114.403 31.9184 117.072M77.475 117.072C77.0339 117.177 76.6448 117.437 76.3781 117.804V117.877C77.0728 117.95 78.2062 117.438 79.1568 117.219C86.3596 115.683 94.7689 120.034 101.423 116.231H101.387C94.1108 119.778 85.2993 114.44 77.4384 117.109" fill="white"/>
</g>
</g>
</g>
</svg>
