<svg width="32" height="32" viewBox="0 0 32 32" fill="none" xmlns="http://www.w3.org/2000/svg">
<path d="M30.6483 13.3903L28.5085 11.2206C28.2986 11.0106 28.2136 10.7956 28.2136 10.5156V7.461C28.2136 4.9513 27.0587 3.77144 24.524 3.77144H21.4794C21.1844 3.77144 20.9844 3.70145 20.7594 3.49147L18.5897 1.33672C16.8149 -0.453066 15.1651 -0.438068 13.3903 1.33672L11.2206 3.49147C11.0106 3.70145 10.7956 3.77144 10.5156 3.77144H7.461C4.9413 3.77144 3.77144 4.9263 3.77144 7.461V10.5156C3.77144 10.7956 3.70145 11.0106 3.49147 11.2206L1.33672 13.3903C-0.453066 15.1651 -0.438068 16.8149 1.33672 18.5897L3.49147 20.7594C3.70145 20.9844 3.77144 21.1844 3.77144 21.4794V24.524C3.77144 27.0437 4.9413 28.2136 7.461 28.2136H10.5156C10.7956 28.2136 11.0106 28.2986 11.2206 28.5085L13.3903 30.6633C15.1651 32.4531 16.8149 32.4381 18.5897 30.6633L20.7594 28.5085C20.9844 28.2986 21.1844 28.2136 21.4794 28.2136H24.524C27.0437 28.2136 28.2136 27.0587 28.2136 24.524V21.4794C28.2136 21.1844 28.2986 20.9844 28.5085 20.7594L30.6483 18.5897C32.4531 16.8149 32.4381 15.1651 30.6483 13.3903ZM22.7892 11.1656L14.5752 22.6442C14.3652 22.9142 14.0402 23.0792 13.6153 23.0792C13.1903 23.0792 12.8954 22.9392 12.6854 22.6992L7.98094 17.4748C7.78597 17.2499 7.67098 16.9699 7.67098 16.6699C7.67098 16.01 8.17592 15.5151 8.89583 15.5151C9.27579 15.5151 9.55576 15.64 9.81073 15.91L13.5453 20.0395L20.7994 9.82573C21.0794 9.41577 21.3644 9.24579 21.8543 9.24579C22.5442 9.24579 23.0392 9.75073 23.0392 10.4157C23.0392 10.6556 22.9392 10.9356 22.7842 11.1606L22.7892 11.1656Z" fill="#E07B39"/>
</svg>
