<svg width="40" height="40" viewBox="0 0 40 40" fill="none" xmlns="http://www.w3.org/2000/svg">
<g id="Frame" clip-path="url(#clip0_16_1085)">
<path id="Vector" d="M32.4009 28.6819C31.5747 28.3547 30.4647 28.3166 29.1018 28.5689L23.9044 29.5312C25.6654 28.0228 27.2476 25.8209 27.2476 23.3976V17.6749C27.2476 17.5516 27.2059 17.4319 27.1293 17.3353C27.0527 17.2387 26.9458 17.1708 26.8257 17.1426C25.3121 16.7862 23.8136 16.1242 22.372 15.1748C22.2827 15.116 22.1782 15.0847 22.0713 15.0847H18.3284C18.2215 15.0847 18.1169 15.1161 18.0276 15.1748C16.5859 16.1242 15.0874 16.7862 13.5739 17.1426C13.4539 17.1708 13.3469 17.2387 13.2703 17.3353C13.1937 17.4319 13.1521 17.5516 13.152 17.6749V23.3976C13.1541 23.8811 13.2162 24.3625 13.3369 24.8307C12.3408 24.8434 11.3777 25.1659 10.2527 25.5797C8.87673 26.0859 7.50744 26.5712 6.11681 27.0604L6.07775 26.9291C5.96097 26.5417 5.69544 26.2164 5.3393 26.0244C4.98317 25.8324 4.56546 25.7894 4.17767 25.9048L1.79486 26.6173C1.60226 26.6742 1.42283 26.7687 1.26691 26.8953C1.11099 27.0219 0.981659 27.1781 0.886368 27.3548C0.791077 27.5316 0.73171 27.7255 0.711686 27.9254C0.691663 28.1252 0.71138 28.327 0.769701 28.5192L3.67751 38.2088C3.79387 38.5965 4.05937 38.9221 4.41568 39.1142C4.77199 39.3062 5.18995 39.3489 5.57775 39.233L7.96056 38.5205C8.15316 38.4636 8.3326 38.3691 8.48852 38.2425C8.64445 38.1159 8.77378 37.9597 8.86908 37.7829C8.96438 37.6061 9.02375 37.4122 9.04378 37.2123C9.06381 37.0125 9.0441 36.8106 8.98579 36.6184L8.70822 35.6934L10.8403 34.9145C11.3656 34.7127 11.9487 34.7228 12.4667 34.9427L17.0772 36.8105C17.5947 37.0105 18.1461 37.1083 18.7009 37.0986C19.8218 37.0986 20.989 36.7771 21.9925 36.5005C22.0944 36.4725 22.1943 36.4452 22.2921 36.4184L31.5637 33.8972C33.1049 33.478 34.2053 31.7666 33.8724 30.3065C33.7038 29.568 33.1813 28.991 32.4009 28.6819ZM14.2462 18.1005C15.7518 17.6828 17.1837 17.0345 18.4909 16.1786H21.9091C23.2163 17.0345 24.6482 17.6828 26.1538 18.1005V23.3973C26.1538 25.3009 24.8157 27.4896 22.7038 29.0977C22.413 28.7076 22.0169 28.4088 21.5621 28.2362L17.4626 26.6737C16.3947 25.7508 15.4567 25.2055 14.5177 24.9693C14.3428 24.4634 14.2512 23.9325 14.2465 23.3973L14.2462 18.1005ZM7.90587 37.2639C7.87867 37.3141 7.84178 37.3584 7.79734 37.3942C7.7529 37.43 7.70178 37.4567 7.64697 37.4726L5.26415 38.185C5.15413 38.2177 5.03561 38.2055 4.93457 38.1511C4.83353 38.0966 4.7582 38.0043 4.72509 37.8944L1.81728 28.2048C1.8003 28.1503 1.79439 28.0929 1.79988 28.0361C1.80537 27.9793 1.82216 27.9241 1.84925 27.8738C1.87635 27.8235 1.91322 27.7792 1.95769 27.7434C2.00216 27.7075 2.05333 27.6809 2.10822 27.6652L4.49087 26.9531C4.53103 26.941 4.57275 26.9348 4.6147 26.9348C4.70792 26.9349 4.79864 26.965 4.87346 27.0206C4.94827 27.0762 5.00321 27.1544 5.03017 27.2437L7.93798 36.9332C7.95476 36.9877 7.96057 37.045 7.95505 37.1018C7.94954 37.1585 7.93283 37.2136 7.90587 37.2639ZM31.2766 32.842L22.0049 35.363C21.9059 35.3899 21.8049 35.4176 21.7018 35.4461C20.3547 35.8171 18.6784 36.2791 17.4876 35.7967L12.877 33.9289C12.1078 33.6074 11.2446 33.5924 10.4647 33.8871L8.39298 34.6439L6.43181 28.1094C7.84243 27.613 9.23197 27.1208 10.6307 26.6062C13.0532 25.7152 14.3283 25.3833 16.8164 27.562C16.8653 27.6046 16.9213 27.6383 16.9819 27.6615L21.1723 29.2584C21.3546 29.3279 21.5215 29.4326 21.6634 29.5666C21.8053 29.7006 21.9193 29.8612 21.9992 30.0393C22.079 30.2174 22.1229 30.4094 22.1285 30.6045C22.1341 30.7995 22.1012 30.9938 22.0317 31.1761C21.9622 31.3585 21.8575 31.5254 21.7235 31.6672C21.5895 31.8091 21.4289 31.9232 21.2508 32.003C21.0728 32.0828 20.8807 32.1268 20.6857 32.1323C20.4906 32.1379 20.2963 32.105 20.114 32.0355L14.5451 29.9132C14.4779 29.8874 14.4064 29.8752 14.3345 29.8771C14.2626 29.879 14.1918 29.8951 14.1261 29.9244C14.0604 29.9538 14.0012 29.9958 13.9518 30.048C13.9023 30.1003 13.8637 30.1618 13.8381 30.229C13.8125 30.2962 13.8004 30.3678 13.8025 30.4397C13.8046 30.5116 13.8208 30.5824 13.8503 30.648C13.8798 30.7136 13.922 30.7727 13.9743 30.822C14.0267 30.8713 14.0883 30.9098 14.1556 30.9352L19.7245 33.0576C20.1054 33.2025 20.5152 33.2552 20.9203 33.2114C21.3255 33.1675 21.7145 33.0283 22.0556 32.8052C22.3966 32.582 22.6799 32.2813 22.8824 31.9276C23.0849 31.5739 23.2007 31.1773 23.2204 30.7702L29.301 29.6446C31.2827 29.2774 32.5929 29.6162 32.806 30.5501C33.0093 31.4413 32.2517 32.577 31.2766 32.842ZM39.2297 11.4812L36.3217 1.7914C36.205 1.40399 35.9394 1.07865 35.5832 0.886674C35.2271 0.694694 34.8093 0.651726 34.4215 0.767184L32.0387 1.47953C31.8461 1.53651 31.6667 1.63103 31.5108 1.75764C31.3549 1.88425 31.2256 2.04046 31.1303 2.21726C31.035 2.39406 30.9757 2.58796 30.9557 2.78779C30.9357 2.98763 30.9554 3.18945 31.0137 3.38164L31.2913 4.30672L29.1591 5.08593C28.6338 5.28761 28.0508 5.27753 27.5328 5.05781L22.9222 3.18961C21.3882 2.56812 19.5134 3.08445 18.007 3.49945C17.9051 3.52757 17.8052 3.55497 17.7074 3.58164L8.43564 6.10289C6.89423 6.52203 5.79384 8.23343 6.12697 9.69367C6.2954 10.4322 6.81806 11.0091 7.59845 11.3182C8.4247 11.6455 9.53454 11.6834 10.8974 11.4312L16.9611 10.3087C17.0928 10.6404 17.292 10.941 17.5461 11.1916C17.8002 11.4421 18.1036 11.637 18.4371 11.764L22.5367 13.3265C23.8937 14.4991 25.041 15.0645 26.2467 15.1569C26.3658 15.1661 26.4839 15.1705 26.6017 15.1705C27.6191 15.1705 28.5982 14.8429 29.7458 14.4205C31.1177 13.9159 32.4889 13.43 33.8819 12.9397L33.921 13.071C34.0372 13.4588 34.3026 13.7845 34.6589 13.9766C35.0153 14.1687 35.4333 14.2113 35.8211 14.0952L38.2039 13.3829C38.3965 13.3259 38.5759 13.2314 38.7318 13.1048C38.8878 12.9782 39.0171 12.822 39.1124 12.6452C39.2077 12.4685 39.2671 12.2746 39.2871 12.0747C39.3072 11.8749 39.288 11.6734 39.2297 11.4812ZM29.3685 13.3941C26.9459 14.2852 25.6709 14.617 23.1827 12.4384C23.1339 12.3957 23.0779 12.362 23.0173 12.3389L18.827 10.7422C18.6436 10.6734 18.4757 10.5691 18.3328 10.4352C18.1899 10.3014 18.0749 10.1406 17.9944 9.9621C17.9139 9.78363 17.8694 9.59101 17.8635 9.3953C17.8577 9.19959 17.8905 9.00465 17.9603 8.82168C18.03 8.63872 18.1352 8.47134 18.2698 8.32916C18.4044 8.18697 18.5658 8.0728 18.7447 7.99319C18.9236 7.91358 19.1164 7.87011 19.3121 7.86527C19.5079 7.86043 19.7026 7.89432 19.8852 7.965L25.4542 10.0873C25.5896 10.1386 25.7398 10.134 25.8719 10.0747C26.004 10.0153 26.1072 9.90596 26.1587 9.77063C26.2103 9.63531 26.2061 9.48506 26.147 9.35283C26.088 9.2206 25.9789 9.1172 25.8437 9.06531L20.2749 6.94273C19.894 6.79766 19.4842 6.74487 19.0789 6.7887C18.6737 6.83253 18.2847 6.97172 17.9436 7.19487C17.6026 7.41803 17.3192 7.7188 17.1168 8.07255C16.9144 8.4263 16.7987 8.82297 16.7791 9.23007L10.6983 10.3557C8.71665 10.7229 7.40634 10.3841 7.19329 9.45031C6.99017 8.55875 7.74744 7.42343 8.72267 7.15828L17.9944 4.63711C18.0933 4.61018 18.1944 4.58244 18.2975 4.5539C19.6444 4.18281 21.321 3.72062 22.5117 4.20336L27.1222 6.07117C27.8914 6.39268 28.7545 6.40763 29.5344 6.11297L31.6063 5.35609L33.5672 11.891C32.1539 12.3884 30.7627 12.8812 29.3685 13.3941ZM38.1497 12.1262C38.1225 12.1764 38.0856 12.2207 38.0412 12.2565C37.9967 12.2924 37.9456 12.319 37.8908 12.3349L35.508 13.0473C35.398 13.08 35.2795 13.0678 35.1784 13.0134C35.0774 12.9589 35.002 12.8666 34.9689 12.7567L32.0613 3.06726C32.0443 3.01273 32.0384 2.95535 32.0439 2.89849C32.0493 2.84163 32.0661 2.78644 32.0932 2.73616C32.1203 2.68587 32.1572 2.64151 32.2017 2.60568C32.2462 2.56985 32.2974 2.54327 32.3523 2.5275L34.7351 1.81507C34.8451 1.78244 34.9636 1.7947 35.0646 1.84917C35.1656 1.90365 35.241 1.99591 35.2742 2.10578L38.182 11.7952C38.1988 11.8497 38.2046 11.9071 38.1991 11.9639C38.1936 12.0207 38.1767 12.0759 38.1497 12.1262ZM16.4902 22.3082C16.4487 22.2486 16.4194 22.1813 16.4041 22.1103C16.3888 22.0393 16.3878 21.9659 16.4012 21.8945C16.4145 21.8231 16.442 21.755 16.482 21.6944C16.522 21.6337 16.5736 21.5816 16.6339 21.5411C16.6943 21.5006 16.7621 21.4725 16.8334 21.4585C16.9047 21.4446 16.9781 21.4449 17.0492 21.4596C17.1204 21.4743 17.1879 21.503 17.2478 21.5441C17.3078 21.5852 17.3589 21.6378 17.3983 21.6988L18.7646 23.7337L23.111 20.2045C23.1666 20.1582 23.2308 20.1235 23.3 20.1022C23.3692 20.0809 23.4419 20.0736 23.5139 20.0806C23.5859 20.0877 23.6558 20.1089 23.7196 20.1432C23.7833 20.1774 23.8396 20.224 23.8852 20.2802C23.9309 20.3363 23.9649 20.401 23.9853 20.4704C24.0058 20.5398 24.0122 20.6126 24.0043 20.6846C23.9964 20.7565 23.9744 20.8261 23.9393 20.8895C23.9043 20.9528 23.8571 21.0086 23.8004 21.0535L18.9892 24.9602C18.9302 25.0081 18.8618 25.0431 18.7885 25.0632C18.7152 25.0832 18.6385 25.0877 18.5634 25.0764C18.4882 25.0652 18.4163 25.0384 18.352 24.9978C18.2878 24.9571 18.2328 24.9036 18.1904 24.8405L16.4902 22.3082Z" fill="#B6A28E" stroke="#B6A28E" stroke-width="0.5"/>
</g>
<defs>
<clipPath id="clip0_16_1085">
<rect width="40" height="40" fill="white"/>
</clipPath>
</defs>
</svg>
