<svg width="40" height="40" viewBox="0 0 40 40" fill="none" xmlns="http://www.w3.org/2000/svg">
<g id="Frame">
<g id="Group">
<g id="Group_2">
<path id="Vector" d="M8.36209 32.5439C8.23685 32.5443 8.11548 32.5004 8.01943 32.4201C7.92337 32.3397 7.8588 32.228 7.83712 32.1046C7.81544 31.9812 7.83804 31.8542 7.90093 31.7459C7.96382 31.6376 8.06296 31.555 8.18084 31.5126C9.04501 31.1803 9.88104 30.779 10.6808 30.3126C10.5183 29.1251 10.8808 27.0564 11.8496 26.0064C12.0675 25.7488 12.3509 25.5547 12.6699 25.4447C12.9889 25.3347 13.3317 25.3128 13.6621 25.3814C13.7528 25.3975 13.8373 25.4386 13.9058 25.5001C14.1059 25.6812 14.2604 25.9068 14.3571 26.1587C14.4537 26.4106 14.4897 26.6818 14.4621 26.9501C14.3746 28.2939 13.0621 30.0001 11.8746 30.7876C11.917 30.9329 11.9896 31.0675 12.0876 31.1827C12.1856 31.298 12.3068 31.3912 12.4433 31.4564C13.1246 31.6501 14.3558 30.5314 15.1746 29.7939C15.5131 29.4748 15.8722 29.1784 16.2496 28.9064C16.327 28.8524 16.4176 28.8203 16.5118 28.8134C16.606 28.8065 16.7002 28.8252 16.7847 28.8674C16.8691 28.9097 16.9406 28.9739 16.9917 29.0533C17.0427 29.1328 17.0713 29.2245 17.0746 29.3189C17.0864 29.4958 17.0864 29.6733 17.0746 29.8501C17.0314 30.1782 17.0526 30.5115 17.1371 30.8314C17.2496 30.8314 17.5308 30.4314 17.6808 30.2064C17.9404 29.7699 18.3291 29.4248 18.7933 29.2189C18.8669 29.1954 18.9448 29.1882 19.0215 29.1979C19.0981 29.2076 19.1717 29.2339 19.2372 29.2749C19.3026 29.316 19.3584 29.3708 19.4004 29.4356C19.4425 29.5004 19.47 29.5736 19.4808 29.6501C19.4986 29.8945 19.486 30.1401 19.4433 30.3814C19.4189 30.5387 19.4043 30.6973 19.3996 30.8564C19.892 30.7605 20.3542 30.5474 20.7469 30.2352C21.1396 29.923 21.4514 29.5208 21.6558 29.0626C21.7026 28.934 21.7972 28.8284 21.92 28.7678C22.0427 28.7072 22.1841 28.6963 22.3147 28.7374C22.4452 28.7785 22.5549 28.8684 22.6208 28.9884C22.6867 29.1084 22.7037 29.2492 22.6683 29.3814C22.3976 30.064 21.9497 30.6619 21.3706 31.1135C20.7916 31.5651 20.1025 31.8539 19.3746 31.9501C19.2319 31.9661 19.0875 31.9484 18.9529 31.8985C18.8183 31.8485 18.6973 31.7678 18.5996 31.6626C18.4606 31.5052 18.3733 31.3088 18.3496 31.1001C18.2212 31.3228 18.04 31.5105 17.8221 31.6467C17.6041 31.783 17.356 31.8635 17.0996 31.8814C16.9603 31.8775 16.8232 31.8457 16.6965 31.7877C16.5698 31.7297 16.4561 31.6468 16.3621 31.5439C16.1325 31.2474 16.0112 30.8813 16.0183 30.5064L15.9371 30.5814C14.8246 31.5814 13.4371 32.8376 12.1871 32.4564C11.9189 32.3672 11.6735 32.2202 11.4684 32.0258C11.2632 31.8314 11.1031 31.5944 10.9996 31.3314C10.2142 31.7833 9.39506 32.1741 8.54959 32.5001C8.49052 32.5267 8.42684 32.5416 8.36209 32.5439ZM13.2558 26.4001C13.134 26.4072 13.0151 26.4405 12.9072 26.4977C12.7994 26.5548 12.7051 26.6345 12.6308 26.7314C12.0313 27.5703 11.708 28.5752 11.7058 29.6064C12.5371 28.8751 13.3496 27.7314 13.4058 26.8814C13.4259 26.7127 13.386 26.5424 13.2933 26.4001H13.2558Z" fill="#8D7257"/>
<path id="Vector_2" d="M4.00586 36.525C3.86496 36.525 3.72984 36.4691 3.63021 36.3694C3.53058 36.2698 3.47461 36.1347 3.47461 35.9938V4.08752C3.47461 3.94663 3.53058 3.8115 3.63021 3.71187C3.72984 3.61225 3.86496 3.55627 4.00586 3.55627H22.3184C22.4558 3.55786 22.5876 3.61146 22.6871 3.70627L27.3309 8.15627C27.3827 8.20524 27.4239 8.26437 27.4518 8.32997C27.4798 8.39556 27.4939 8.46622 27.4934 8.53752V18.1938C27.4934 18.3347 27.4374 18.4698 27.3378 18.5694C27.2381 18.6691 27.103 18.725 26.9621 18.725C26.8212 18.725 26.6861 18.6691 26.5865 18.5694C26.4868 18.4698 26.4309 18.3347 26.4309 18.1938V8.75002L22.1059 4.61877H4.53711V35.4625H24.0246C24.2434 35.4625 26.3496 35.2938 26.3496 33.175V30C26.3496 29.8591 26.4056 29.724 26.5052 29.6244C26.6048 29.5247 26.74 29.4688 26.8809 29.4688C27.0218 29.4688 27.1569 29.5247 27.2565 29.6244C27.3561 29.724 27.4121 29.8591 27.4121 30V33.125C27.4121 35.6688 25.2059 36.4313 24.0434 36.475L4.00586 36.525Z" fill="#8D7257"/>
<path id="Vector_3" d="M26.9619 9.06894H23.8369C23.3009 9.06894 22.7868 8.85646 22.4072 8.47805C22.0276 8.09963 21.8136 7.58617 21.8119 7.05019V4.08769C21.8121 3.98354 21.843 3.88176 21.9006 3.795C21.9582 3.70824 22.04 3.64032 22.1359 3.5997C22.2318 3.55907 22.3376 3.54753 22.44 3.56651C22.5424 3.58549 22.6369 3.63415 22.7119 3.70644L27.3557 8.15644C27.4315 8.23002 27.4836 8.32452 27.5055 8.42789C27.5273 8.53126 27.5178 8.63879 27.4783 8.73674C27.4387 8.83469 27.3708 8.91862 27.2833 8.97779C27.1957 9.03696 27.0926 9.0687 26.9869 9.06894H26.9619ZM22.8494 5.31894V7.03769C22.8494 7.1638 22.8744 7.28866 22.9228 7.40508C22.9712 7.52151 23.0422 7.6272 23.1317 7.71608C23.2212 7.80496 23.3273 7.87527 23.4441 7.92295C23.5608 7.97064 23.6858 7.99477 23.8119 7.99394H25.6244L22.8494 5.31894ZM11.5557 19.8252H9.21191C9.07102 19.8252 8.93589 19.7692 8.83626 19.6696C8.73663 19.57 8.68066 19.4348 8.68066 19.2939C8.68066 19.153 8.73663 19.0179 8.83626 18.9183C8.93589 18.8187 9.07102 18.7627 9.21191 18.7627H11.5557C11.6966 18.7627 11.8317 18.8187 11.9313 18.9183C12.0309 19.0179 12.0869 19.153 12.0869 19.2939C12.0869 19.4348 12.0309 19.57 11.9313 19.6696C11.8317 19.7692 11.6966 19.8252 11.5557 19.8252ZM15.4432 19.8252H14.2932C14.1523 19.8252 14.0171 19.7692 13.9175 19.6696C13.8179 19.57 13.7619 19.4348 13.7619 19.2939C13.7619 19.153 13.8179 19.0179 13.9175 18.9183C14.0171 18.8187 14.1523 18.7627 14.2932 18.7627H15.4432C15.5841 18.7627 15.7192 18.8187 15.8188 18.9183C15.9184 19.0179 15.9744 19.153 15.9744 19.2939C15.9744 19.4348 15.9184 19.57 15.8188 19.6696C15.7192 19.7692 15.5841 19.8252 15.4432 19.8252ZM10.3807 22.8377H9.21191C9.07102 22.8377 8.93589 22.7817 8.83626 22.6821C8.73663 22.5825 8.68066 22.4473 8.68066 22.3064C8.68066 22.1655 8.73663 22.0304 8.83626 21.9308C8.93589 21.8312 9.07102 21.7752 9.21191 21.7752H10.3807C10.5216 21.7752 10.6567 21.8312 10.7563 21.9308C10.8559 22.0304 10.9119 22.1655 10.9119 22.3064C10.9119 22.4473 10.8559 22.5825 10.7563 22.6821C10.6567 22.7817 10.5216 22.8377 10.3807 22.8377ZM16.9494 22.8377H12.6807C12.5398 22.8377 12.4046 22.7817 12.305 22.6821C12.2054 22.5825 12.1494 22.4473 12.1494 22.3064C12.1494 22.1655 12.2054 22.0304 12.305 21.9308C12.4046 21.8312 12.5398 21.7752 12.6807 21.7752H16.9494C17.0903 21.7752 17.2254 21.8312 17.3251 21.9308C17.4247 22.0304 17.4807 22.1655 17.4807 22.3064C17.4807 22.4473 17.4247 22.5825 17.3251 22.6821C17.2254 22.7817 17.0903 22.8377 16.9494 22.8377ZM21.3369 19.6689H18.0369C17.896 19.6689 17.7609 19.613 17.6613 19.5133C17.5616 19.4137 17.5057 19.2786 17.5057 19.1377C17.5057 18.9968 17.5616 18.8617 17.6613 18.762C17.7609 18.6624 17.896 18.6064 18.0369 18.6064H21.3369C21.4778 18.6064 21.6129 18.6624 21.7126 18.762C21.8122 18.8617 21.8682 18.9968 21.8682 19.1377C21.8682 19.2786 21.8122 19.4137 21.7126 19.5133C21.6129 19.613 21.4778 19.6689 21.3369 19.6689ZM25.3744 28.5877C25.2777 28.5879 25.1827 28.562 25.0994 28.5127L21.8369 26.5002C21.7173 26.4252 21.632 26.3063 21.5994 26.1689C21.5685 26.0318 21.5932 25.8879 21.6682 25.7689L31.0869 10.5002C31.3282 10.1135 31.7122 9.83754 32.1557 9.73223C32.5992 9.62693 33.0663 9.70075 33.4557 9.93769L34.7057 10.7002C35.0924 10.9415 35.3683 11.3255 35.4736 11.769C35.5789 12.2125 35.5051 12.6796 35.2682 13.0689L25.8307 28.3377C25.782 28.4146 25.7146 28.4778 25.6348 28.5216C25.555 28.5653 25.4654 28.588 25.3744 28.5877ZM22.8744 25.8752L25.2244 27.3252L34.3744 12.5002C34.4202 12.4268 34.4511 12.3451 34.4652 12.2597C34.4793 12.1744 34.4764 12.0871 34.4566 12.0029C34.4369 11.9186 34.4007 11.8392 34.3501 11.769C34.2995 11.6988 34.2356 11.6393 34.1619 11.5939L32.9119 10.8314C32.7633 10.7406 32.5848 10.7119 32.4152 10.7517C32.2456 10.7915 32.0984 10.8965 32.0057 11.0439L22.8744 25.8752Z" fill="#8D7257"/>
<path id="Vector_4" d="M33.5563 19.4626C33.4585 19.4637 33.3627 19.4354 33.2812 19.3814C33.1641 19.3047 33.0819 19.1848 33.0527 19.0479C33.0234 18.911 33.0494 18.768 33.125 18.6501L35.3562 15.0314C35.4238 14.7739 35.3879 14.5002 35.2563 14.2689C35.1342 14.1703 34.9921 14.0997 34.8399 14.0619C34.6876 14.0241 34.529 14.0201 34.375 14.0501C34.267 14.0552 34.16 14.0269 34.0688 13.9689L30.8125 11.9626C30.6923 11.888 30.6067 11.7688 30.5745 11.631C30.5422 11.4933 30.566 11.3484 30.6406 11.2283C30.7152 11.1081 30.8345 11.0225 30.9722 10.9902C31.1099 10.958 31.2548 10.9818 31.375 11.0564L34.5 12.9814C34.7946 12.9478 35.093 12.9872 35.3688 13.0962C35.6445 13.2052 35.8892 13.3804 36.0813 13.6064C36.2549 13.8638 36.369 14.1566 36.4155 14.4636C36.462 14.7706 36.4396 15.0841 36.35 15.3814C36.3363 15.4271 36.3175 15.4712 36.2937 15.5126L34.0187 19.2001C33.9706 19.2798 33.9028 19.3458 33.8218 19.3918C33.7408 19.4377 33.6494 19.4621 33.5563 19.4626ZM22 30.3626C21.9003 30.3638 21.8025 30.3356 21.7188 30.2814C21.6396 30.2321 21.5748 30.1628 21.531 30.0805C21.4871 29.9982 21.4656 29.9058 21.4687 29.8126L21.625 26.0626C21.6301 25.97 21.6586 25.8802 21.7078 25.8015C21.7569 25.7228 21.8252 25.6578 21.9062 25.6126C21.9872 25.5666 22.0787 25.5424 22.1719 25.5424C22.265 25.5424 22.3565 25.5666 22.4375 25.6126L25.625 27.5751C25.7049 27.6242 25.7705 27.6932 25.8155 27.7754C25.8604 27.8576 25.8831 27.9502 25.8813 28.0439C25.8786 28.1371 25.8511 28.2279 25.8017 28.307C25.7522 28.3861 25.6826 28.4506 25.6 28.4939L22.275 30.3001C22.1905 30.3451 22.0956 30.3667 22 30.3626ZM22.625 27.0001L22.5437 28.9189L24.2438 28.0001L22.625 27.0001ZM16.25 16.3751C16.1802 16.3751 16.1112 16.3614 16.0467 16.3347C15.9822 16.308 15.9237 16.2689 15.8744 16.2195C15.825 16.1702 15.7859 16.1116 15.7592 16.0472C15.7325 15.9827 15.7188 15.9137 15.7188 15.8439V12.2439H13.6563V15.8439C13.6563 15.9848 13.6003 16.1199 13.5007 16.2195C13.401 16.3192 13.2659 16.3751 13.125 16.3751C12.9841 16.3751 12.849 16.3192 12.7494 16.2195C12.6497 16.1199 12.5938 15.9848 12.5938 15.8439V11.7126C12.5938 11.6429 12.6075 11.5738 12.6342 11.5093C12.6609 11.4449 12.7 11.3863 12.7494 11.337C12.7987 11.2877 12.8572 11.2485 12.9217 11.2218C12.9862 11.1951 13.0552 11.1814 13.125 11.1814H16.25C16.3198 11.1814 16.3888 11.1951 16.4533 11.2218C16.5178 11.2485 16.5763 11.2877 16.6257 11.337C16.675 11.3863 16.7141 11.4449 16.7408 11.5093C16.7675 11.5738 16.7813 11.6429 16.7813 11.7126V15.8439C16.7813 15.9137 16.7675 15.9827 16.7408 16.0472C16.7141 16.1116 16.675 16.1702 16.6257 16.2195C16.5763 16.2689 16.5178 16.308 16.4533 16.3347C16.3888 16.3614 16.3198 16.3751 16.25 16.3751Z" fill="#8D7257"/>
<path id="Vector_5" d="M18.7496 16.3751H10.4434C10.3025 16.3751 10.1673 16.3192 10.0677 16.2195C9.96808 16.1199 9.91211 15.9848 9.91211 15.8439V10.2189C9.91211 10.078 9.96808 9.94285 10.0677 9.84322C10.1673 9.74359 10.3025 9.68762 10.4434 9.68762C10.5843 9.68762 10.7194 9.74359 10.819 9.84322C10.9186 9.94285 10.9746 10.078 10.9746 10.2189V15.3439H18.2184V10.4439C18.2184 10.303 18.2743 10.1679 18.374 10.0682C18.4736 9.96859 18.6087 9.91262 18.7496 9.91262C18.8905 9.91262 19.0256 9.96859 19.1253 10.0682C19.2249 10.1679 19.2809 10.303 19.2809 10.4439V15.8439C19.2809 15.9848 19.2249 16.1199 19.1253 16.2195C19.0256 16.3192 18.8905 16.3751 18.7496 16.3751Z" fill="#8D7257"/>
<path id="Vector_6" d="M20.0745 11.7564C19.9723 11.7552 19.8726 11.7248 19.787 11.6689L14.5933 8.31265L9.59329 11.5689C9.47477 11.6452 9.33081 11.6712 9.19309 11.6413C9.05537 11.6114 8.93516 11.528 8.85891 11.4095C8.78266 11.291 8.75662 11.1471 8.7865 11.0093C8.81639 10.8716 8.89977 10.7514 9.01829 10.6752L14.337 7.2314C14.424 7.17641 14.5248 7.14722 14.6277 7.14722C14.7305 7.14722 14.8313 7.17641 14.9183 7.2314L20.3933 10.7752C20.5119 10.852 20.5955 10.9725 20.6259 11.1106C20.6563 11.2486 20.6311 11.393 20.5558 11.5127C20.5037 11.5916 20.4319 11.6557 20.3475 11.6984C20.2631 11.7412 20.169 11.7611 20.0745 11.7564Z" fill="#8D7257"/>
<path id="Vector_7" d="M10.4437 10.7189C10.3029 10.7189 10.1677 10.6629 10.0681 10.5633C9.96847 10.4636 9.9125 10.3285 9.9125 10.1876V8.31262C9.9125 8.17173 9.96847 8.0366 10.0681 7.93697C10.1677 7.83734 10.3029 7.78137 10.4437 7.78137C10.5846 7.78137 10.7198 7.83734 10.8194 7.93697C10.919 8.0366 10.975 8.17173 10.975 8.31262V10.1876C10.975 10.2574 10.9613 10.3265 10.9346 10.3909C10.9079 10.4554 10.8687 10.5139 10.8194 10.5633C10.7701 10.6126 10.7115 10.6517 10.6471 10.6784C10.5826 10.7051 10.5135 10.7189 10.4437 10.7189ZM19.8313 16.3751H9.375C9.2341 16.3751 9.09898 16.3192 8.99935 16.2195C8.89972 16.1199 8.84375 15.9848 8.84375 15.8439C8.84375 15.703 8.89972 15.5679 8.99935 15.4682C9.09898 15.3686 9.2341 15.3126 9.375 15.3126H19.8313C19.9721 15.3126 20.1073 15.3686 20.2069 15.4682C20.3065 15.5679 20.3625 15.703 20.3625 15.8439C20.3625 15.9848 20.3065 16.1199 20.2069 16.2195C20.1073 16.3192 19.9721 16.3751 19.8313 16.3751Z" fill="#8D7257"/>
</g>
</g>
</g>
</svg>
