<svg width="40" height="40" viewBox="0 0 40 40" fill="none" xmlns="http://www.w3.org/2000/svg">
<path d="M39.125 31.5C38.2562 31.5 37.8617 31.2633 37.3633 30.9641C36.8727 30.6703 36.325 30.3414 35.375 30.2664V28.625H36.625C36.7908 28.625 36.9497 28.5591 37.0669 28.4419C37.1842 28.3247 37.25 28.1658 37.25 28V26.125C37.25 25.9592 37.1842 25.8003 37.0669 25.6831C36.9497 25.5658 36.7908 25.5 36.625 25.5H35.375V12.6336L36.8078 14.0672C36.9251 14.1845 37.0841 14.2503 37.25 14.2503C37.4159 14.2503 37.5749 14.1845 37.6922 14.0672C37.8095 13.9499 37.8753 13.7908 37.8753 13.625C37.8753 13.4591 37.8095 13.3001 37.6922 13.1828L36.2586 11.75H37.25C37.3932 11.75 37.5321 11.7008 37.6434 11.6107C37.7547 11.5205 37.8316 11.3949 37.8614 11.2548C37.8911 11.1147 37.8718 10.9686 37.8068 10.841C37.7417 10.7135 37.6348 10.6121 37.5039 10.5539L20.6289 3.0539C20.549 3.01836 20.4625 3 20.375 3C20.2875 3 20.201 3.01836 20.1211 3.0539L3.24609 10.5539C3.11523 10.6121 3.00832 10.7135 2.94325 10.841C2.87818 10.9686 2.8589 11.1147 2.88864 11.2548C2.91838 11.3949 2.99533 11.5205 3.10662 11.6107C3.21791 11.7008 3.35678 11.75 3.5 11.75H4.49141L3.05781 13.1828C2.94054 13.3001 2.87465 13.4591 2.87465 13.625C2.87465 13.7908 2.94054 13.9499 3.05781 14.0672C3.17509 14.1845 3.33415 14.2503 3.5 14.2503C3.66585 14.2503 3.82491 14.1845 3.94219 14.0672L5.375 12.6336V25.5H4.125C3.95924 25.5 3.80027 25.5658 3.68306 25.6831C3.56585 25.8003 3.5 25.9592 3.5 26.125V28C3.5 28.1658 3.56585 28.3247 3.68306 28.4419C3.80027 28.5591 3.95924 28.625 4.125 28.625H5.375V31.4789C4.78203 31.4148 4.44141 31.2109 4.02969 30.9641C3.47187 30.6297 2.83984 30.25 1.625 30.25C1.45924 30.25 1.30027 30.3158 1.18306 30.4331C1.06585 30.5503 1 30.7092 1 30.875C1 31.0408 1.06585 31.1997 1.18306 31.3169C1.30027 31.4341 1.45924 31.5 1.625 31.5C2.49375 31.5 2.8875 31.7367 3.38672 32.0359C3.94453 32.3703 4.57656 32.75 5.79141 32.75C5.84297 32.75 5.89219 32.7484 5.94141 32.7469C5.96086 32.7491 5.98042 32.7501 6 32.75C6.03669 32.7498 6.07329 32.7464 6.10938 32.7398C7.12031 32.6797 7.68984 32.3398 8.19609 32.0359C8.69531 31.7367 9.08984 31.5 9.95781 31.5C10.8258 31.5 11.2211 31.7367 11.7195 32.0359C12.2773 32.3703 12.9102 32.75 14.125 32.75C15.3398 32.75 15.9719 32.3703 16.5297 32.0359C17.0289 31.7367 17.4227 31.5 18.2914 31.5C19.1602 31.5 19.5539 31.7367 20.0531 32.0359C20.6109 32.3703 21.243 32.75 22.4578 32.75C23.6727 32.75 24.3047 32.3703 24.8625 32.0359C25.3617 31.7367 25.7555 31.5 26.6242 31.5C27.493 31.5 27.8867 31.7367 28.3859 32.0359C28.9438 32.3703 29.5758 32.75 30.7906 32.75C32.0055 32.75 32.6383 32.3703 33.1961 32.0359C33.6953 31.7367 34.0891 31.5 34.9578 31.5C35.8266 31.5 36.2211 31.7367 36.7195 32.0359C37.2781 32.3703 37.9102 32.75 39.125 32.75C39.2908 32.75 39.4497 32.6841 39.5669 32.5669C39.6842 32.4497 39.75 32.2908 39.75 32.125C39.75 31.9592 39.6842 31.8003 39.5669 31.6831C39.4497 31.5658 39.2908 31.5 39.125 31.5ZM20.375 4.30859L34.3047 10.5H6.44531L20.375 4.30859ZM17.875 21.75V21.125H31.625V21.75H17.875ZM30.375 23V25.5H25.375V23H30.375ZM24.125 23V25.5H19.125V23H24.125ZM31.625 23H32.25C32.4158 23 32.5747 22.9341 32.6919 22.8169C32.8092 22.6997 32.875 22.5408 32.875 22.375V20.5C32.875 20.3342 32.8092 20.1753 32.6919 20.0581C32.5747 19.9408 32.4158 19.875 32.25 19.875H17.25C17.0842 19.875 16.9253 19.9408 16.8081 20.0581C16.6908 20.1753 16.625 20.3342 16.625 20.5V22.375C16.625 22.5408 16.6908 22.6997 16.8081 22.8169C16.9253 22.9341 17.0842 23 17.25 23H17.875V25.5H15.375V13.625C15.375 13.4592 15.3092 13.3003 15.1919 13.1831C15.0747 13.0658 14.9158 13 14.75 13H8.5C8.33424 13 8.17527 13.0658 8.05806 13.1831C7.94085 13.3003 7.875 13.4592 7.875 13.625V25.5H6.625V11.75H34.125V25.5H31.625V23ZM14.125 14.25V25.5H9.125V14.25H14.125ZM34.125 30.3187C33.4219 30.443 32.9664 30.7156 32.5531 30.9641C32.0539 31.2633 31.6594 31.5 30.7906 31.5C29.9219 31.5 29.5281 31.2633 29.0289 30.9641C28.4711 30.6297 27.8391 30.25 26.6242 30.25C25.4094 30.25 24.7773 30.6297 24.2195 30.9641C23.7203 31.2633 23.3266 31.5 22.4578 31.5C21.5891 31.5 21.1953 31.2633 20.6961 30.9641C20.1383 30.6297 19.5063 30.25 18.2914 30.25C17.0766 30.25 16.4437 30.6297 15.8859 30.9641C15.3875 31.2633 14.993 31.5 14.125 31.5C13.257 31.5 12.8617 31.2633 12.3633 30.9641C11.8055 30.6297 11.1727 30.25 9.95781 30.25C8.74297 30.25 8.11094 30.6297 7.55312 30.9641C7.24844 31.1469 6.98281 31.3055 6.625 31.4023V28.625H34.125V30.3187ZM4.75 27.375V26.75H36V27.375H4.75ZM39.125 35.75C38.2563 35.75 37.862 35.5135 37.3629 35.2141C36.8051 34.8793 36.1727 34.5 34.9579 34.5C33.743 34.5 33.1107 34.8793 32.5528 35.2141C32.0537 35.5135 31.6594 35.75 30.7908 35.75C29.9222 35.75 29.5281 35.5135 29.0291 35.2141C28.4713 34.8793 27.839 34.5 26.6242 34.5C25.4095 34.5 24.7773 34.8793 24.2194 35.2141C23.7203 35.5135 23.3262 35.75 22.4576 35.75C21.589 35.75 21.195 35.5135 20.6959 35.2141C20.1381 34.8793 19.5059 34.5 18.2911 34.5C17.0763 34.5 16.4441 34.8793 15.8863 35.2141C15.3873 35.5135 14.9931 35.75 14.125 35.75C13.2569 35.75 12.8623 35.5135 12.3633 35.2141C11.8055 34.8793 11.1732 34.5 9.95836 34.5C8.74352 34.5 8.11141 34.8793 7.55359 35.2141C7.05453 35.5135 6.66039 35.75 5.79187 35.75C4.92336 35.75 4.52922 35.5135 4.03016 35.2141C3.47203 34.8793 2.83977 34.5 1.625 34.5C1.45924 34.5 1.30027 34.5658 1.18306 34.6831C1.06585 34.8003 1 34.9592 1 35.125C1 35.2908 1.06585 35.4497 1.18306 35.5669C1.30027 35.6841 1.45924 35.75 1.625 35.75C2.49352 35.75 2.88766 35.9865 3.38672 36.2859C3.94453 36.6207 4.5768 37 5.79156 37C7.00633 37 7.63859 36.6207 8.19641 36.2859C8.69531 35.9865 9.08961 35.75 9.95805 35.75C10.8265 35.75 11.2208 35.9865 11.7198 36.2859C12.2777 36.6207 12.9099 37 14.1247 37C15.3395 37 15.9717 36.6207 16.5295 36.2859C17.0285 35.9865 17.4227 35.75 18.2911 35.75C19.1595 35.75 19.5538 35.9865 20.0528 36.2859C20.6107 36.6207 21.2429 37 22.4576 37C23.6723 37 24.3047 36.6207 24.8625 36.2859C25.3616 35.9865 25.7557 35.75 26.6242 35.75C27.4927 35.75 27.8869 35.9865 28.3859 36.2859C28.9438 36.6207 29.576 37 30.7908 37C32.0055 37 32.638 36.6207 33.1958 36.2859C33.6949 35.9865 34.0892 35.75 34.9579 35.75C35.8266 35.75 36.2208 35.9865 36.7198 36.2859C37.2777 36.6207 37.9101 37 39.125 37C39.2908 37 39.4497 36.9341 39.5669 36.8169C39.6842 36.6997 39.75 36.5408 39.75 36.375C39.75 36.2092 39.6842 36.0503 39.5669 35.9331C39.4497 35.8158 39.2908 35.75 39.125 35.75Z" fill="#B6A28E"/>
</svg>
