<svg width="18" height="20" viewBox="0 0 18 20" fill="none" xmlns="http://www.w3.org/2000/svg">
<path fill-rule="evenodd" clip-rule="evenodd" d="M11.2587 0.0418816C11.6151 0.133907 11.9137 0.370302 12.0787 0.690988C12.7004 1.89989 13.1644 2.6336 13.6312 3.22849C14.1038 3.83065 14.6036 4.32361 15.364 5.06284C17.1211 6.77114 18 9.01264 18 11.25C18 13.4874 17.1211 15.7289 15.364 17.4372C11.8492 20.8543 6.15076 20.8543 2.63604 17.4372C0.878934 15.7289 3.02538e-06 13.4874 0 11.25C-3.80241e-06 9.01264 0.878928 6.77114 2.63604 5.06284C3.00375 4.70534 3.55676 4.5984 4.0372 4.79187C4.51764 4.98535 4.83089 5.44115 4.83089 5.94672C4.83089 7.34649 4.9208 8.41306 5.3419 9.26378C5.57345 9.73157 5.93466 10.1889 6.5572 10.597C6.70588 9.27108 6.97824 7.65559 7.34625 6.12221C7.636 4.91493 7.99636 3.70966 8.42528 2.70457C8.63982 2.20185 8.88242 1.72317 9.15795 1.30988C9.42614 0.907594 9.77073 0.498224 10.2155 0.209943C10.5223 0.0110619 10.9023 -0.0501437 11.2587 0.0418816ZM11.7274 16.4016C10.2211 17.8661 7.7789 17.8661 6.27259 16.4016C5.51944 15.6694 5.14286 14.7097 5.14286 13.75C5.14286 13.75 6.27259 14.375 8.3572 14.375C8.3572 13.125 9.00006 9.37498 9.96434 8.74999C10.6072 9.99998 10.9743 10.3661 11.7274 11.0983C12.4806 11.8306 12.8571 12.7903 12.8571 13.75C12.8571 14.7097 12.4806 15.6694 11.7274 16.4016Z" fill="#FF8A00"/>
</svg>
