<svg width="20" height="20" viewBox="0 0 20 20" fill="none" xmlns="http://www.w3.org/2000/svg">
<path d="M2.08398 3.88501C1.39857 3.88501 0.833984 4.45001 0.833984 5.13501V17.4808C0.833984 18.1658 1.39857 18.7308 2.08398 18.7308H15.2923C15.9773 18.7308 16.5423 18.1658 16.5423 17.4808V5.13501C16.5423 4.45001 15.9773 3.88501 15.2923 3.88501H2.08398ZM2.08398 4.71834H15.2923C15.5298 4.71834 15.709 4.89709 15.709 5.13501V12.92L12.7686 10.0171C12.1282 9.37126 11.2069 9.43043 10.6361 10.0367L7.70148 13.0404L6.55023 11.8629C5.95607 11.2158 4.90398 11.2142 4.32023 11.8825L1.66732 14.6958V5.13501C1.66732 4.89709 1.84607 4.71834 2.08398 4.71834ZM12.1832 10.61L15.7086 14.09V17.4804C15.7086 17.7183 15.5302 17.8971 15.2919 17.8971H2.08398C1.84607 17.8971 1.66732 17.7183 1.66732 17.4804V15.9125L4.92648 12.455C4.99176 12.3842 5.07085 12.3275 5.15887 12.2884C5.24689 12.2493 5.34198 12.2287 5.43828 12.2278C5.53458 12.2268 5.63006 12.2456 5.71882 12.283C5.80759 12.3203 5.88776 12.3755 5.9544 12.445L8.9819 15.5425C9.02018 15.5817 9.06579 15.6129 9.11613 15.6344C9.16647 15.6559 9.22056 15.6673 9.27531 15.668C9.33006 15.6686 9.38439 15.6584 9.43521 15.638C9.48603 15.6176 9.53233 15.5875 9.57148 15.5492C9.61063 15.5109 9.64186 15.4653 9.66339 15.4149C9.68491 15.3646 9.69631 15.3105 9.69692 15.2558C9.69754 15.201 9.68737 15.1467 9.66699 15.0959C9.64662 15.045 9.61643 14.9987 9.57815 14.9596L8.2844 13.6375L11.2327 10.6188C11.5423 10.3042 11.9052 10.3175 12.1832 10.61Z" fill="#374955"/>
<path d="M3.87565 1.26959C3.53362 1.27156 3.20616 1.40834 2.96433 1.65024C2.72251 1.89213 2.58584 2.21964 2.58398 2.56168V2.81834C2.58398 2.92885 2.62788 3.03483 2.70602 3.11297C2.78416 3.19111 2.89014 3.23501 3.00065 3.23501C3.11116 3.23501 3.21714 3.19111 3.29528 3.11297C3.37342 3.03483 3.41732 2.92885 3.41732 2.81834V2.56168C3.41732 2.30084 3.61482 2.10293 3.87565 2.10293H17.8757C18.1369 2.10293 18.334 2.30084 18.334 2.56168V14.695C18.334 15.1188 18.0319 15.1488 17.6423 15.1538C17.5318 15.1538 17.4258 15.1977 17.3477 15.2758C17.2695 15.3539 17.2257 15.4599 17.2257 15.5704C17.2257 15.6809 17.2695 15.7869 17.3477 15.8651C17.4258 15.9432 17.5318 15.9871 17.6423 15.9871C18.484 15.9871 19.1673 15.6329 19.1673 14.695V2.56168C19.1673 1.85334 18.584 1.26959 17.8757 1.26959H3.87565ZM4.75065 6.08334C3.80065 6.08334 3.02148 6.86251 3.02148 7.81251C3.02148 8.76251 3.80065 9.54168 4.75065 9.54168C5.70065 9.54168 6.47982 8.76251 6.47982 7.81251C6.47982 6.86251 5.70065 6.08334 4.75065 6.08334ZM4.75065 6.91668C5.25065 6.91668 5.64648 7.31251 5.64648 7.81251C5.64648 8.31251 5.25065 8.70834 4.75065 8.70834C4.25065 8.70834 3.85482 8.31251 3.85482 7.81251C3.85482 7.31251 4.25107 6.91668 4.75065 6.91668Z" fill="#374955"/>
</svg>
