<svg width="20" height="21" viewBox="0 0 20 21" fill="none" xmlns="http://www.w3.org/2000/svg">
<g id="WhatsApp">
<path id="Combined-Shape-path" d="M4.99774 18.1908L1.52961 19.1005L2.45531 15.7191L2.23743 15.3724C1.32017 13.9135 0.835716 12.2273 0.836427 10.4959C0.838431 5.44363 4.94912 1.33331 10.0036 1.33331C12.4511 1.33416 14.7518 2.2885 16.4818 4.02056C18.2119 5.75262 19.1641 8.05482 19.1632 10.5033C19.1611 15.5559 15.0505 19.6666 9.99996 19.6666H9.99625C8.35196 19.666 6.73924 19.2243 5.33235 18.3894L4.99774 18.1908Z" stroke="white"/>
<path id="Combined-Shape-path_2" d="M15.5541 13.126C15.4852 13.0111 15.3016 12.9421 15.0262 12.8042C14.7507 12.6663 13.3964 12 13.1438 11.908C12.8913 11.8161 12.7076 11.7702 12.524 12.0458C12.3404 12.3216 11.8125 12.9421 11.6518 13.126C11.4911 13.3098 11.3304 13.3328 11.055 13.1949C10.7795 13.057 9.89193 12.7662 8.83972 11.8276C8.0208 11.0972 7.46795 10.1951 7.30726 9.91934C7.14657 9.64355 7.29013 9.49452 7.42803 9.35716C7.55197 9.23369 7.70352 9.03533 7.84125 8.87453C7.97897 8.71372 8.02488 8.59874 8.11671 8.41502C8.20852 8.23109 8.16263 8.07028 8.09374 7.93239C8.02488 7.79449 7.47397 6.43857 7.24442 5.88699C7.0208 5.34984 6.79371 5.4226 6.62463 5.41412C6.46413 5.40606 6.28028 5.40436 6.09666 5.40436C5.91303 5.40436 5.61457 5.47331 5.36208 5.74909C5.10958 6.02488 4.39795 6.69134 4.39795 8.04716C4.39795 9.40309 5.38502 10.713 5.52276 10.8968C5.66049 11.0807 7.46521 13.8631 10.2286 15.0563C10.8858 15.3401 11.3989 15.5096 11.799 15.6366C12.4589 15.8463 13.0595 15.8167 13.534 15.7457C14.0633 15.6667 15.1638 15.0794 15.3935 14.4359C15.6229 13.7924 15.6229 13.2408 15.5541 13.126Z" stroke="white"/>
</g>
</svg>
