<svg width="20" height="21" viewBox="0 0 20 21" fill="none" xmlns="http://www.w3.org/2000/svg">
<g id="Viber">
<path id="Path" d="M17.0974 2.55442C16.617 2.10174 14.6757 0.662508 10.3517 0.642955C10.3517 0.642955 5.25247 0.32892 2.76669 2.65752C1.38296 4.07097 0.896191 6.13916 0.844845 8.70329C0.793499 11.2674 0.727068 16.0727 5.26262 17.3757H5.26697L5.26407 19.3639C5.26407 19.3639 5.23506 20.1688 5.75403 20.333C6.38178 20.532 6.7502 19.9203 7.34952 19.2608C7.67848 18.8988 8.13277 18.367 8.47507 17.9605C11.577 18.2271 13.9627 17.6177 14.2336 17.5277C14.8599 17.3203 18.404 16.8564 18.9804 12.0516C19.5753 7.09904 18.6926 3.96639 17.0974 2.55442ZM17.623 11.6964C17.1366 15.7083 14.2621 15.9605 13.7321 16.1341C13.5067 16.2081 11.4114 16.7405 8.77647 16.5648C8.77647 16.5648 6.81315 18.9838 6.1999 19.6127C6.10417 19.7111 5.99161 19.7508 5.91648 19.7313C5.81089 19.7049 5.78188 19.5772 5.78304 19.3906C5.78478 19.1239 5.79986 16.0867 5.79986 16.0867C5.79754 16.0867 5.79986 16.0867 5.79986 16.0867C1.96314 14.9988 2.1868 10.9089 2.23031 8.76728C2.27383 6.62562 2.66777 4.87117 3.83799 3.69117C5.94056 1.74623 10.2719 2.03686 10.2719 2.03686C13.9296 2.05315 15.6823 3.17805 16.0888 3.55489C17.4383 4.73489 18.1258 7.55854 17.623 11.6952V11.6964Z" fill="white"/>
<path id="Path_2" fill-rule="evenodd" clip-rule="evenodd" d="M10.4261 7.03459C10.4332 6.89685 10.5482 6.79101 10.6831 6.7982C11.1877 6.82508 11.6075 6.98108 11.9065 7.29682C12.2044 7.61134 12.3504 8.05074 12.3761 8.57845C12.3827 8.71621 12.2788 8.83343 12.1439 8.84027C12.009 8.8471 11.8943 8.74096 11.8876 8.6032C11.8656 8.15147 11.7443 7.84395 11.555 7.64407C11.3668 7.4454 11.0797 7.3195 10.6576 7.29701C10.5227 7.28983 10.4191 7.17234 10.4261 7.03459Z" fill="white"/>
<path id="Path_3" fill-rule="evenodd" clip-rule="evenodd" d="M10.0554 5.68905C10.0652 5.55149 10.1824 5.44813 10.3171 5.4582C11.344 5.53495 12.1706 5.89331 12.7727 6.56452L12.7728 6.56462C13.3684 7.22922 13.6514 8.056 13.6309 9.02575C13.6279 9.16365 13.5161 9.27302 13.3811 9.27004C13.2461 9.26705 13.139 9.15284 13.1419 9.01494C13.16 8.15974 12.9138 7.46176 12.412 6.90183C11.9118 6.34422 11.2125 6.02595 10.2814 5.95636C10.1467 5.94629 10.0455 5.82661 10.0554 5.68905Z" fill="white"/>
<path id="Path_4" fill-rule="evenodd" clip-rule="evenodd" d="M9.62354 4.40993C9.62448 4.27201 9.73473 4.16097 9.86978 4.16193C11.289 4.17203 12.4885 4.65453 13.4517 5.61341C14.4229 6.5803 14.9032 7.89664 14.9153 9.53151C14.9164 9.66944 14.8077 9.7821 14.6727 9.78315C14.5376 9.7842 14.4273 9.67324 14.4263 9.53531C14.4149 8.00336 13.9686 6.82558 13.1103 5.97108C12.2439 5.10855 11.1682 4.67067 9.86638 4.66141C9.73132 4.66045 9.6226 4.54786 9.62354 4.40993Z" fill="white"/>
<path id="Path_5" d="M10.719 11.9358C10.719 11.9358 11.0628 11.9654 11.2479 11.7326L11.6088 11.2689C11.7828 11.039 12.2029 10.8924 12.6142 11.1264C12.9225 11.306 13.2217 11.5011 13.5109 11.7112C13.7838 11.9162 14.3428 12.3926 14.3446 12.3926C14.6109 12.6222 14.6724 12.9594 14.4911 13.3149C14.4911 13.317 14.4896 13.3205 14.4896 13.3223C14.2899 13.6758 14.0364 13.9946 13.7386 14.2668C13.7351 14.2685 13.7351 14.2703 13.7319 14.2721C13.4732 14.4929 13.2189 14.6184 12.9693 14.6487C12.9325 14.6552 12.8952 14.6576 12.8579 14.6558C12.7478 14.6568 12.6382 14.6396 12.5336 14.6048L12.5254 14.5927C12.1408 14.4819 11.4985 14.2046 10.429 13.602C9.81002 13.2574 9.22077 12.8598 8.66753 12.4137C8.39023 12.1902 8.12572 11.9506 7.8753 11.6961L7.84861 11.6689L7.82192 11.6416L7.79523 11.6144C7.78624 11.6055 7.77754 11.5963 7.76855 11.5871C7.51939 11.3314 7.2848 11.0612 7.06595 10.778C6.62913 10.2131 6.23989 9.6114 5.9024 8.97943C5.31236 7.88682 5.04083 7.2315 4.93234 6.83806L4.92045 6.82977C4.88644 6.72284 4.86969 6.61097 4.87084 6.49855C4.86881 6.46049 4.87105 6.42232 4.87751 6.38479C4.90865 6.1302 5.03174 5.87038 5.2468 5.60533C5.24854 5.60207 5.25028 5.60207 5.25202 5.59851C5.51841 5.29435 5.8306 5.03552 6.17683 4.83179C6.17857 4.83179 6.18205 4.83002 6.18408 4.83002C6.53218 4.64485 6.86231 4.70766 7.08684 4.97815C7.08858 4.97992 7.55417 5.55082 7.75404 5.8296C7.95978 6.12519 8.1509 6.43111 8.32668 6.74622C8.55585 7.16602 8.41226 7.5959 8.18715 7.77306L7.73316 8.14161C7.50398 8.33062 7.53415 8.68169 7.53415 8.68169C7.53415 8.68169 8.20658 11.2808 10.719 11.9358Z" fill="white"/>
</g>
</svg>
