<svg width="20" height="21" viewBox="0 0 20 21" fill="none" xmlns="http://www.w3.org/2000/svg">
<g id="Instagram">
<path id="Combined-Shape-path" d="M8.99675 1.33605C9.2945 1.33558 9.62674 1.33605 9.99998 1.33605C12.9859 1.33605 13.3398 1.34677 14.519 1.40035C15.6093 1.45021 16.2011 1.6324 16.5953 1.78548C17.1172 1.98817 17.4893 2.23048 17.8805 2.62189C18.2719 3.0133 18.5142 3.38608 18.7173 3.90797C18.8704 4.30171 19.0528 4.89349 19.1025 5.98386C19.156 7.16276 19.1677 7.5169 19.1677 10.5014C19.1677 13.486 19.156 13.8401 19.1025 15.019C19.0526 16.1094 18.8704 16.7012 18.7173 17.0949C18.5146 17.6168 18.2719 17.9884 17.8805 18.3796C17.489 18.771 17.1174 19.0133 16.5953 19.216C16.2016 19.3698 15.6093 19.5515 14.519 19.6014C13.34 19.6549 12.9859 19.6666 9.99998 19.6666C7.01381 19.6666 6.65991 19.6549 5.48101 19.6014C4.39064 19.551 3.79886 19.3688 3.40442 19.2158C2.88253 19.0131 2.50975 18.7708 2.11834 18.3793C1.72693 17.9879 1.48462 17.6161 1.28146 17.094C1.12839 16.7002 0.945961 16.1084 0.896335 15.0181C0.842749 13.8392 0.832031 13.485 0.832031 10.4986C0.832031 7.51224 0.842749 7.15997 0.896335 5.98106C0.946194 4.8907 1.12839 4.29891 1.28146 3.9047C1.48416 3.38282 1.72693 3.01004 2.11834 2.61863C2.50975 2.22721 2.88253 1.98491 3.40442 1.78175C3.79863 1.62798 4.39064 1.44625 5.48101 1.39616C6.51266 1.34956 6.91247 1.33558 8.99675 1.33325V1.33605Z" stroke="white"/>
<path id="Combined-Shape-path_2" d="M15.9699 3.19322C15.229 3.19322 14.6279 3.79362 14.6279 4.53474C14.6279 5.27563 15.229 5.87673 15.9699 5.87673C16.7108 5.87673 17.3119 5.27563 17.3119 4.53474C17.3119 3.79385 16.7108 3.19275 15.9699 3.19275V3.19322Z" stroke="white"/>
<path id="Combined-Shape-path_3" d="M9.99991 4.76141C6.82829 4.76141 4.25684 7.33287 4.25684 10.5045C4.25684 13.6761 6.82829 16.2464 9.99991 16.2464C13.1715 16.2464 15.7421 13.6761 15.7421 10.5045C15.7421 7.33287 13.1713 4.76141 9.99968 4.76141H9.99991Z" stroke="white"/>
</g>
</svg>
