<svg width="16" height="17" viewBox="0 0 16 17" fill="none" xmlns="http://www.w3.org/2000/svg">
<path d="M8.00016 15.1666C11.6821 15.1666 14.6668 12.1819 14.6668 8.49998C14.6668 4.81808 11.6821 1.83331 8.00016 1.83331C4.31826 1.83331 1.3335 4.81808 1.3335 8.49998C1.3335 12.1819 4.31826 15.1666 8.00016 15.1666Z" stroke="white" stroke-linecap="round" stroke-linejoin="round"/>
<path d="M5.33372 2.5H6.00039C4.70039 6.39333 4.70039 10.6067 6.00039 14.5H5.33372" stroke="white" stroke-linecap="round" stroke-linejoin="round"/>
<path d="M10 2.5C11.3 6.39333 11.3 10.6067 10 14.5" stroke="white" stroke-linecap="round" stroke-linejoin="round"/>
<path d="M2 11.1667V10.5C5.89333 11.8 10.1067 11.8 14 10.5V11.1667" stroke="white" stroke-linecap="round" stroke-linejoin="round"/>
<path d="M2 6.50002C5.89333 5.20002 10.1067 5.20002 14 6.50002" stroke="white" stroke-linecap="round" stroke-linejoin="round"/>
</svg>
