<svg width="16" height="17" viewBox="0 0 16 17" fill="none" xmlns="http://www.w3.org/2000/svg">
<path d="M5.78125 10.0532C5.78125 10.9132 6.44125 11.6066 7.26125 11.6066H8.93458C9.64792 11.6066 10.2279 10.9999 10.2279 10.2532C10.2279 9.43992 9.87458 9.15325 9.34792 8.96658L6.66125 8.03325C6.13458 7.84658 5.78125 7.55992 5.78125 6.74658C5.78125 5.99992 6.36125 5.39325 7.07458 5.39325H8.74792C9.56792 5.39325 10.2279 6.08658 10.2279 6.94658" stroke="#374955" stroke-linecap="round" stroke-linejoin="round"/>
<path d="M8 4.5V12.5" stroke="#374955" stroke-linecap="round" stroke-linejoin="round"/>
<path d="M8.00016 15.1666C11.6821 15.1666 14.6668 12.1819 14.6668 8.49998C14.6668 4.81808 11.6821 1.83331 8.00016 1.83331C4.31826 1.83331 1.3335 4.81808 1.3335 8.49998C1.3335 12.1819 4.31826 15.1666 8.00016 15.1666Z" stroke="#374955" stroke-linecap="round" stroke-linejoin="round"/>
</svg>
