<svg width="20" height="20" viewBox="0 0 20 20" fill="none" xmlns="http://www.w3.org/2000/svg">
<g clip-path="url(#clip0_180_3426)">
<path d="M11.3366 14.0909C11.1322 14.11 10.9269 14.0638 10.7503 13.9591C10.6866 13.8936 10.6384 13.8147 10.6093 13.7282C10.5801 13.6417 10.5709 13.5497 10.5821 13.4591C10.5869 13.3062 10.6051 13.1541 10.6366 13.0045C10.6671 12.8329 10.7066 12.663 10.7548 12.4954L11.2912 10.65C11.3465 10.4678 11.383 10.2804 11.4003 10.0908C11.4003 9.88632 11.4275 9.74538 11.4275 9.66358C11.4332 9.48362 11.3981 9.30471 11.3249 9.14021C11.2517 8.97571 11.1423 8.82987 11.0048 8.71358C10.6623 8.45062 10.2357 8.32136 9.80481 8.34995C9.49601 8.3546 9.18962 8.40515 8.8957 8.49995C8.57449 8.59995 8.2366 8.71964 7.88207 8.85905L7.72754 9.45905C7.83207 9.42269 7.95938 9.38179 8.1048 9.33632C8.24355 9.29521 8.38737 9.27379 8.53207 9.27269C8.73505 9.25069 8.93932 9.30054 9.10934 9.41358C9.16648 9.48177 9.20923 9.56083 9.23501 9.64598C9.26079 9.73113 9.26906 9.82062 9.25934 9.90905C9.25883 10.0619 9.24207 10.2143 9.20934 10.3636C9.1775 10.5227 9.1366 10.6908 9.0866 10.8681L8.5457 12.7226C8.50211 12.895 8.46722 13.0695 8.44117 13.2454C8.41993 13.396 8.40929 13.5478 8.40934 13.6999C8.40824 13.881 8.44864 14.06 8.52742 14.2231C8.60621 14.3862 8.7213 14.5291 8.86387 14.6408C9.21169 14.9079 9.64432 15.0403 10.082 15.0135C10.3903 15.0199 10.6974 14.9753 10.9911 14.8817C11.2487 14.7938 11.5927 14.6681 12.023 14.5044L12.1684 13.9317C12.0519 13.9801 11.9318 14.0196 11.8093 14.0499C11.6544 14.0852 11.4953 14.099 11.3366 14.0909ZM11.9048 5.34089C11.6574 5.1137 11.3315 4.99147 10.9957 4.99999C10.6601 4.99242 10.3345 5.11452 10.0866 5.34089C9.63223 5.73269 9.58148 6.41866 9.97332 6.87308C10.0082 6.91358 10.0461 6.95144 10.0866 6.98636C10.6043 7.44936 11.3871 7.44936 11.9048 6.98636C12.3591 6.59069 12.4068 5.90163 12.0111 5.44726C11.9782 5.40938 11.9427 5.37384 11.9048 5.34089Z" fill="#E07B39"/>
<path d="M10 0C4.47715 0 0 4.47715 0 10C0 15.5229 4.47715 20 10 20C15.5229 20 20 15.5229 20 10C20 4.47715 15.5229 0 10 0ZM10 19.0909C4.97922 19.0909 0.909102 15.0208 0.909102 10C0.909102 4.97922 4.97922 0.909102 10 0.909102C15.0208 0.909102 19.0909 4.97922 19.0909 10C19.0909 15.0208 15.0208 19.0909 10 19.0909Z" fill="#E07B39"/>
</g>
<defs>
<clipPath id="clip0_180_3426">
<rect width="20" height="20" fill="white"/>
</clipPath>
</defs>
</svg>
