<svg width="24" height="24" viewBox="0 0 24 24" fill="none" xmlns="http://www.w3.org/2000/svg">
<g id="Frame">
<g id="Group">
<path id="Vector" d="M19.8323 2H7.89762C7.75804 2 7.62417 2.05545 7.52546 2.15415C7.42676 2.25286 7.37131 2.38673 7.37131 2.52631C7.37131 2.6659 7.42676 2.79977 7.52546 2.89848C7.62417 2.99718 7.75804 3.05263 7.89762 3.05263H19.8323C20.1278 3.05291 20.4112 3.17039 20.6201 3.37931C20.8291 3.58823 20.9467 3.87151 20.9471 4.16701V16.1021C20.9471 16.2417 21.0025 16.3755 21.1012 16.4742C21.1999 16.5729 21.3338 16.6284 21.4734 16.6284C21.613 16.6284 21.7468 16.5729 21.8455 16.4742C21.9442 16.3755 21.9997 16.2417 21.9997 16.1021V4.16701C21.999 3.59242 21.7705 3.04156 21.3642 2.6353C20.9578 2.22903 20.4069 2.00056 19.8323 2ZM20.2043 17.82C20.104 17.7244 19.9708 17.6711 19.8323 17.6711C19.6938 17.6711 19.5606 17.7244 19.4604 17.82C19.3617 17.9187 19.3063 18.0525 19.3063 18.1921C19.3063 18.3316 19.3617 18.4655 19.4604 18.5642L20.2029 19.3066H5.80745C5.51195 19.3063 5.22867 19.1887 5.01975 18.9797C4.81083 18.7707 4.69335 18.4874 4.69307 18.1919V3.79684L5.43552 4.53929C5.53576 4.63488 5.66895 4.6882 5.80745 4.6882C5.94596 4.6882 6.07915 4.63488 6.17938 4.53929C6.27805 4.44059 6.33348 4.30675 6.33348 4.16719C6.33348 4.02763 6.27805 3.89378 6.17938 3.79508L4.53904 2.15403C4.43878 2.05835 4.30552 2.00496 4.16693 2.00496C4.02834 2.00496 3.89508 2.05835 3.79483 2.15403L2.15378 3.79508C2.0553 3.89381 2 4.02757 2 4.16701C2 4.30646 2.0553 4.44021 2.15378 4.53894C2.25403 4.63463 2.38729 4.68801 2.52588 4.68801C2.66447 4.68801 2.79773 4.63463 2.89799 4.53894L3.64044 3.79684V18.1919C3.641 18.7665 3.86948 19.3174 4.27574 19.7237C4.682 20.13 5.23286 20.3586 5.80745 20.3593H20.2032L19.4604 21.1014C19.4115 21.1502 19.3727 21.2082 19.3463 21.2721C19.3198 21.336 19.3062 21.4044 19.3062 21.4735C19.3061 21.5426 19.3197 21.6111 19.3462 21.675C19.3726 21.7388 19.4114 21.7969 19.4602 21.8457C19.5091 21.8946 19.5671 21.9334 19.631 21.9599C19.6948 21.9864 19.7633 22 19.8324 22C19.9015 22 19.97 21.9864 20.0338 21.96C20.0977 21.9335 20.1557 21.8948 20.2046 21.8459L21.8457 20.2049C21.9442 20.1062 21.9996 19.9724 21.9996 19.8329C21.9996 19.6935 21.9442 19.5597 21.8457 19.461L20.2043 17.82Z" fill="#374955"/>
<path id="Vector_2" d="M14.3694 15.5652C14.5089 15.5651 14.6427 15.5095 14.7414 15.4109C14.84 15.3122 14.8955 15.1785 14.8957 15.0389V9.96315C14.8967 9.55648 14.7742 9.1591 14.5444 8.82354C14.3147 8.48798 13.9885 8.23003 13.6091 8.08379C13.2296 7.93756 12.8147 7.90992 12.4192 8.00453C12.0237 8.09914 11.6662 8.31155 11.394 8.61368C11.2059 8.4055 10.9764 8.23889 10.7202 8.12451C10.4641 8.01014 10.1868 7.95052 9.90626 7.94947C9.56935 7.94936 9.2381 8.03613 8.94451 8.2014C8.93745 8.06453 8.87729 7.9358 8.7768 7.8426C8.67632 7.7494 8.54344 7.69907 8.40643 7.70231C8.26941 7.70556 8.13907 7.76212 8.04311 7.85998C7.94715 7.95783 7.89314 8.08926 7.89258 8.22631V15.0389C7.89258 15.1785 7.94803 15.3124 8.04673 15.4111C8.14544 15.5098 8.27931 15.5652 8.41889 15.5652C8.55848 15.5652 8.69235 15.5098 8.79105 15.4111C8.88976 15.3124 8.94521 15.1785 8.94521 15.0389V9.96315C8.94521 9.70817 9.0465 9.46363 9.2268 9.28334C9.40709 9.10304 9.65163 9.00175 9.90661 9.00175C10.1616 9.00175 10.4061 9.10304 10.5864 9.28334C10.7667 9.46363 10.868 9.70817 10.868 9.96315V15.0389C10.868 15.1785 10.9235 15.3124 11.0222 15.4111C11.1209 15.5098 11.2547 15.5652 11.3943 15.5652C11.5339 15.5652 11.6678 15.5098 11.7665 15.4111C11.8652 15.3124 11.9206 15.1785 11.9206 15.0389V9.96315C11.9254 9.7114 12.0288 9.47158 12.2086 9.29524C12.3883 9.1189 12.6301 9.02011 12.8819 9.02011C13.1337 9.02011 13.3754 9.1189 13.5552 9.29524C13.7349 9.47158 13.8383 9.7114 13.8431 9.96315V15.0389C13.8433 15.1785 13.8988 15.3122 13.9974 15.4109C14.0961 15.5095 14.2299 15.5651 14.3694 15.5652ZM18.4729 8.25228L18.5564 8.13824C18.7297 7.8832 18.8225 7.58202 18.8227 7.27368C18.8227 6.86106 18.6588 6.46534 18.367 6.17357C18.0753 5.88181 17.6796 5.7179 17.2669 5.7179C16.8543 5.7179 16.4586 5.88181 16.1668 6.17357C15.8751 6.46534 15.7112 6.86106 15.7112 7.27368C15.7112 7.41327 15.7666 7.54714 15.8653 7.64584C15.964 7.74455 16.0979 7.8 16.2375 7.8C16.3771 7.8 16.5109 7.74455 16.6096 7.64584C16.7083 7.54714 16.7638 7.41327 16.7638 7.27368C16.7642 7.19724 16.7821 7.12189 16.816 7.05338C16.8499 6.98486 16.8989 6.92497 16.9594 6.87825C17.02 6.83153 17.0903 6.79922 17.1652 6.78376C17.24 6.7683 17.3175 6.7701 17.3915 6.78903C17.4656 6.80796 17.5344 6.84351 17.5926 6.893C17.6509 6.94248 17.6971 7.00459 17.7278 7.07461C17.7585 7.14464 17.7728 7.22073 17.7697 7.29711C17.7665 7.37349 17.746 7.44816 17.7097 7.51544L16.0691 9.27683C15.9809 9.37119 15.9223 9.48921 15.9003 9.61643C15.8783 9.74364 15.8939 9.87451 15.9452 9.99298C15.9965 10.1115 16.0812 10.2124 16.1891 10.2834C16.2969 10.3544 16.4231 10.3923 16.5522 10.3926H18.2638C18.4034 10.3926 18.5372 10.3372 18.6359 10.2385C18.7346 10.1398 18.7901 10.0059 18.7901 9.86631C18.7901 9.72672 18.7346 9.59285 18.6359 9.49415C18.5372 9.39544 18.4034 9.33999 18.2638 9.33999H17.4543L18.4343 8.29789C18.448 8.28385 18.461 8.26807 18.4729 8.25228Z" fill="#374955"/>
</g>
</g>
</svg>
