<svg width="24" height="24" viewBox="0 0 24 24" fill="none" xmlns="http://www.w3.org/2000/svg">
<g id="Frame" clip-path="url(#clip0_2037_1011)">
<g id="Group">
<path id="Vector" d="M1.2 12.7999H1.59998V4.39993C1.59998 2.39991 3.19997 0.799927 5.19999 0.799927C6.97045 0.799927 8.24381 2.11271 8.38627 4.03622C9.31575 4.21191 9.99998 5.01244 9.99998 5.99991C9.99998 6.23991 9.84 6.3999 9.6 6.3999H6.39998C6.15998 6.3999 6 6.23991 6 5.99991C6 5.02336 6.66909 4.22949 7.58283 4.04208C7.4633 2.77102 6.69989 1.5999 5.19999 1.5999C3.63998 1.5999 2.4 2.83988 2.4 4.39988V12.7999H14.4387C14.6196 11.8773 15.4173 11.1999 16.4 11.1999C16.8 10.7199 17.36 10.3999 18 10.3999C18.7599 10.3999 19.44 10.8399 19.76 11.4799C20.08 11.3199 20.44 11.1999 20.8 11.1999C21.7826 11.1999 22.5803 11.8773 22.7613 12.7999H22.8C23.48 12.7999 24 13.3199 24 13.9999C24 14.6799 23.48 15.1999 22.8 15.1999H22.3193L21.24 19.4799C20.92 20.7199 19.8 21.5999 18.52 21.5999H18.2L18.72 22.6399C18.84 22.8399 18.7599 23.0799 18.56 23.1599C18.52 23.1999 18.44 23.1999 18.4 23.1999C18.24 23.1999 18.12 23.1199 18.04 22.9999L17.34 21.5999H6.24L5.55998 22.9599C5.47997 23.1199 5.35997 23.1999 5.19999 23.1999C5.11997 23.1999 5.07998 23.1999 5.04 23.1199C4.88001 23.0399 4.8 22.7999 4.88002 22.5999L5.38106 21.5978C4.14267 21.5538 3.07172 20.6888 2.76 19.5199L1.67063 15.1999H1.2C0.519985 15.1999 0 14.6799 0 13.9999C0 13.3199 0.519985 12.7999 1.2 12.7999ZM6.84 5.59993H9.12C8.96002 5.11993 8.48001 4.79991 7.95998 4.79991C7.43995 4.79991 6.99998 5.11993 6.84 5.59993ZM20.8 11.9999C20.44 11.9999 20.12 12.1599 19.84 12.4399C19.76 12.5599 19.6 12.5999 19.44 12.5599C19.28 12.5199 19.2 12.3999 19.16 12.2399C19.04 11.6399 18.56 11.1999 17.96 11.1999C17.52 11.1999 17.12 11.3999 16.92 11.7999C16.84 11.9599 16.64 12.0399 16.48 11.9999H16.36C15.84 11.9999 15.4 12.3199 15.24 12.7999H21.92C21.76 12.3199 21.32 11.9999 20.8 11.9999ZM3.48 19.2799C3.72 20.1599 4.52002 20.7999 5.43999 20.7999H18.48C19.4 20.7999 20.2 20.16 20.44 19.2799L21.48 15.1999H2.52L3.48 19.2799ZM1.2 14.3999H22.8C23.04 14.3999 23.2 14.2399 23.2 13.9999C23.2 13.7599 23.04 13.5999 22.8 13.5999H1.2C0.960001 13.5999 0.800014 13.7599 0.800014 13.9999C0.800014 14.2399 0.960001 14.3999 1.2 14.3999Z" fill="#374955"/>
<path id="Vector_2" d="M9.60001 8.2C9.36001 8.2 9.20003 8.04001 9.20003 7.80001V7.6C9.20003 7.36 9.36001 7.20001 9.60001 7.20001C9.84001 7.20001 10 7.36 10 7.6V7.80001C10 8.04001 9.84001 8.2 9.60001 8.2ZM9.60001 10.04C9.36001 10.04 9.20003 9.84001 9.20003 9.64004V9.20003C9.20003 8.96003 9.36001 8.80004 9.60001 8.80004C9.84001 8.80004 10 8.96003 10 9.20003V9.64004C10 9.88 9.84001 10.04 9.60001 10.04ZM9.60001 11.6C9.36001 11.6 9.20003 11.44 9.20003 11.2V11C9.20003 10.76 9.36001 10.6 9.60001 10.6C9.84001 10.6 10 10.76 10 11V11.2C10 11.44 9.84001 11.6 9.60001 11.6ZM8.00003 8.2C7.76003 8.2 7.60005 8.04001 7.60005 7.80001V7.6C7.60005 7.36 7.76003 7.20001 8.00003 7.20001C8.24003 7.20001 8.40002 7.36 8.40002 7.6V7.80001C8.40002 8.04001 8.24003 8.2 8.00003 8.2ZM8.40002 9.64C8.40002 9.88 8.24003 10.04 8.00003 10.04C7.76003 10.04 7.60005 9.83997 7.60005 9.64V9.19998C7.60005 8.95998 7.76003 8.8 8.00003 8.8C8.24003 8.8 8.40002 8.95998 8.40002 9.19998V9.64ZM8.40002 11.2C8.40002 11.44 8.24003 11.6 8.00003 11.6C7.76003 11.6 7.60005 11.44 7.60005 11.2V11C7.60005 10.76 7.76003 10.6 8.00003 10.6C8.24003 10.6 8.40002 10.76 8.40002 11V11.2ZM6.4 8.2C6.16 8.2 6.00002 8.04001 6.00002 7.80001V7.6C6.00002 7.36 6.16 7.20001 6.4 7.20001C6.64 7.20001 6.79998 7.36 6.79998 7.6V7.80001C6.80003 8.04001 6.64 8.2 6.4 8.2ZM6.80003 9.64C6.80003 9.88 6.64005 10.04 6.40005 10.04C6.16005 10.04 6.00002 9.84001 6.00002 9.64V9.19998C6.00002 8.95998 6.16 8.8 6.4 8.8C6.64 8.8 6.79998 8.95998 6.79998 9.19998L6.80003 9.64ZM6.80003 11.2C6.80003 11.44 6.64005 11.6 6.40005 11.6C6.16005 11.6 6.00006 11.44 6.00006 11.2V11C6.00006 10.76 6.16005 10.6 6.40005 10.6C6.64005 10.6 6.80003 10.76 6.80003 11V11.2Z" fill="#374955"/>
</g>
</g>
<defs>
<clipPath id="clip0_2037_1011">
<rect width="24" height="24" fill="white" transform="matrix(-1 0 0 1 24 0)"/>
</clipPath>
</defs>
</svg>
