<svg width="24" height="18" viewBox="0 0 24 18" fill="none" xmlns="http://www.w3.org/2000/svg">
<g id="Group">
<path id="Vector" d="M23.6129 13.258H23.2258V10.1612C23.2253 9.75075 23.062 9.35723 22.7717 9.06696C22.4814 8.7767 22.0879 8.6134 21.6774 8.61286V2.03221C21.6769 1.62172 21.5136 1.22819 21.2233 0.937932C20.9331 0.647669 20.5395 0.484363 20.129 0.483826H3.87097C3.46047 0.484363 3.06695 0.647669 2.77669 0.937932C2.48642 1.22819 2.32312 1.62172 2.32258 2.03221V8.61286C1.91209 8.6134 1.51856 8.7767 1.2283 9.06696C0.938037 9.35723 0.774731 9.75075 0.774194 10.1612V13.258H0.387097C0.284432 13.258 0.185973 13.2988 0.113378 13.3714C0.0407833 13.444 0 13.5425 0 13.6451V15.1935C0 15.2962 0.0407833 15.3946 0.113378 15.4672C0.185973 15.5398 0.284432 15.5806 0.387097 15.5806H0.774194V17.129C0.774194 17.2317 0.814977 17.3301 0.887572 17.4027C0.960166 17.4753 1.05863 17.5161 1.16129 17.5161H2.32258C2.41205 17.5161 2.49876 17.4851 2.56793 17.4284C2.63711 17.3717 2.68447 17.2927 2.70194 17.205L3.0271 15.5806H20.9729L21.2981 17.205C21.3155 17.2927 21.3629 17.3717 21.4321 17.4284C21.5012 17.4851 21.588 17.5161 21.6774 17.5161H22.8387C22.9414 17.5161 23.0398 17.4753 23.1124 17.4027C23.185 17.3301 23.2258 17.2317 23.2258 17.129V15.5806H23.6129C23.7156 15.5806 23.814 15.5398 23.8866 15.4672C23.9592 15.3946 24 15.2962 24 15.1935V13.6451C24 13.5425 23.9592 13.444 23.8866 13.3714C23.814 13.2988 23.7156 13.258 23.6129 13.258ZM3.09677 2.03221C3.09704 1.82697 3.1787 1.6302 3.32383 1.48507C3.46896 1.33994 3.66572 1.25829 3.87097 1.25802H20.129C20.3343 1.25829 20.531 1.33994 20.6762 1.48507C20.8213 1.6302 20.903 1.82697 20.9032 2.03221V8.61286H20.129V7.06447C20.1285 6.65398 19.9652 6.26045 19.6749 5.97019C19.3847 5.67993 18.9911 5.51662 18.5806 5.51608H13.9355C13.525 5.51662 13.1315 5.67993 12.8412 5.97019C12.5509 6.26045 12.3876 6.65398 12.3871 7.06447V8.61286H11.6129V7.06447C11.6124 6.65398 11.4491 6.26045 11.1588 5.97019C10.8685 5.67993 10.475 5.51662 10.0645 5.51608H5.41935C5.00886 5.51662 4.61534 5.67993 4.32507 5.97019C4.03481 6.26045 3.87151 6.65398 3.87097 7.06447V8.61286H3.09677V2.03221ZM19.3548 7.06447V8.61286H13.1613V7.06447C13.1616 6.85922 13.2432 6.66246 13.3883 6.51733C13.5335 6.3722 13.7302 6.29055 13.9355 6.29028H18.5806C18.7859 6.29055 18.9827 6.3722 19.1278 6.51733C19.2729 6.66246 19.3546 6.85922 19.3548 7.06447ZM10.8387 7.06447V8.61286H4.64516V7.06447C4.64543 6.85922 4.72708 6.66246 4.87221 6.51733C5.01735 6.3722 5.21411 6.29055 5.41935 6.29028H10.0645C10.2698 6.29055 10.4665 6.3722 10.6117 6.51733C10.7568 6.66246 10.8384 6.85922 10.8387 7.06447ZM1.54839 10.1612C1.54866 9.956 1.63031 9.75924 1.77544 9.6141C1.92057 9.46897 2.11733 9.38732 2.32258 9.38705H21.6774C21.8827 9.38732 22.0794 9.46897 22.2246 9.6141C22.3697 9.75924 22.4513 9.956 22.4516 10.1612V13.258H1.54839V10.1612ZM2.00516 16.7419H1.54839V15.5806H2.23742L2.00516 16.7419ZM22.4516 16.7419H21.9948L21.7626 15.5806H22.4516V16.7419ZM23.2258 14.8064H0.774194V14.0322H23.2258V14.8064Z" fill="#374955"/>
</g>
</svg>
