<svg width="16" height="17" viewBox="0 0 16 17" fill="none" xmlns="http://www.w3.org/2000/svg">
<path d="M7.99997 16.4999C12.4182 16.4999 15.9999 12.9182 15.9999 8.49997C15.9999 4.08171 12.4182 0.5 7.99997 0.5C3.58171 0.5 0 4.08171 0 8.49997C0 12.9182 3.58171 16.4999 7.99997 16.4999Z" fill="#9BE69D"/>
<path d="M12.0198 1.58228C12.7077 2.76354 13.1021 4.13672 13.1021 5.60221C13.1021 10.0205 9.52043 13.6022 5.10215 13.6022C3.63672 13.6022 2.26347 13.2078 1.08228 12.5199C2.46836 14.9 5.04713 16.5 7.99992 16.5C12.4182 16.5 15.9999 12.9183 15.9999 8.49998C15.9999 5.54713 14.3999 2.96829 12.0198 1.58228Z" fill="#6FD7A3"/>
<path d="M7.99989 14.2345C11.167 14.2345 13.7344 11.667 13.7344 8.49995C13.7344 5.33287 11.167 2.76544 7.99989 2.76544C4.83281 2.76544 2.26538 5.33287 2.26538 8.49995C2.26538 11.667 4.83281 14.2345 7.99989 14.2345Z" fill="#3EC3A4"/>
<path d="M9.51201 6.40401L7.10844 8.80757L6.14042 7.83956C5.73285 7.43199 5.07213 7.43199 4.66456 7.83956C4.25706 8.24706 4.25699 8.90764 4.66436 9.31521L6.36984 11.0215C6.77734 11.4291 7.43813 11.4293 7.8457 11.0217L10.9877 7.87973C11.3952 7.47223 11.3952 6.81158 10.9877 6.40407C10.5802 5.99651 9.91944 5.9965 9.51201 6.40401Z" fill="#DFF6FD"/>
</svg>
