<svg width="448" height="131" viewBox="0 0 448 131" fill="none" xmlns="http://www.w3.org/2000/svg">
<g filter="url(#filter0_di_5_123)">
<path d="M44.4547 1.4007L66.668 62.3034C67.2318 63.9475 67.9716 65.5258 68.8746 67.0109C69.6582 67.8785 70.6824 68.4931 71.8168 68.7761L76.5242 70.2472V72.3068H51.0746V70.2472L55.782 68.7761L57.2531 68.0406C57.453 67.6282 57.5537 67.1749 57.5474 66.7166C57.5217 65.818 57.3731 64.9271 57.106 64.0687C56.8117 63.039 56.2233 61.5679 55.6349 59.8026L50.9275 46.4158H26.8017L21.5058 59.6555C20.7703 61.5679 20.329 63.039 19.8876 64.2158C19.5301 65.003 19.3302 65.8526 19.2992 66.7166C19.2789 66.9557 19.3076 67.1964 19.3835 67.4241C19.4594 67.6517 19.5809 67.8615 19.7406 68.0406C20.1805 68.3758 20.6795 68.6253 21.2117 68.7761L25.772 70.1002V72.3068H4.29423L4 70.2472L9.14878 68.6291C10.2176 68.2925 11.1806 67.6842 11.9438 66.8638C12.6956 65.5979 13.3356 64.2689 13.8563 62.8918L39.3059 2.13624L44.4547 1.4007ZM28.5671 41.8554H49.1622L39.453 14.4933L28.5671 41.8554ZM144.782 2.43047H163.171V4.48998L156.992 6.54948C156.628 6.62107 156.305 6.82758 156.086 7.12767C155.868 7.42775 155.771 7.79925 155.815 8.16768C155.668 10.3743 155.668 13.1694 155.668 16.4057V56.8604C155.668 60.8323 155.668 64.0687 155.815 66.8638C155.963 69.6588 156.257 68.0406 157.139 68.3348L163.171 70.2472V72.3068H139.192L138.898 70.2472L144.635 68.482C145.011 68.3605 145.34 68.1256 145.578 67.8095C145.815 67.4934 145.948 67.1116 145.959 66.7166C145.959 64.0687 146.106 60.8323 146.106 56.8604V13.7578L121.245 72.3068L117.714 72.601L92.8533 13.7578V66.7166C92.8838 67.1062 93.0244 67.479 93.2588 67.7916C93.4933 68.1042 93.8118 68.3436 94.1772 68.482L99.7673 70.2472V72.3068H79.6135V70.2472L85.6449 68.3348C86.006 68.2578 86.337 68.0779 86.598 67.8169C86.8591 67.5558 87.039 67.2248 87.116 66.8638V8.16768C87.0965 7.7921 86.9575 7.43257 86.7193 7.1415C86.4812 6.85042 86.1563 6.643 85.792 6.54948L79.6135 4.48998V2.43047H98.5904L121.833 57.1546L144.782 2.43047ZM184.207 36.4124C184.207 47.2984 186.414 55.6835 190.68 61.4207C194.946 67.158 201.566 69.953 209.951 69.953C218.336 69.953 224.515 67.3051 228.487 62.1563C232.459 57.0075 234.371 48.6224 234.371 37.5893C234.371 26.5562 232.312 18.9066 228.045 13.3165C223.779 7.72635 217.307 4.78417 208.48 4.78417C199.654 4.78417 193.769 7.43215 189.945 12.728C186.12 18.0239 184.207 25.8206 184.207 36.4124ZM245.257 35.824C245.257 47.2984 242.021 56.5662 235.548 63.6274C229.075 70.5414 219.955 74.072 208.186 74.072C196.417 74.072 188.473 70.8357 182.295 64.3629C176.116 57.8902 173.174 49.2108 173.174 38.0306C173.174 26.8504 176.558 17.4355 183.03 10.8156C189.503 4.19574 198.771 0.665161 210.245 0.665161C221.72 0.665161 230.105 3.90154 236.136 10.2272C242.168 16.5528 245.257 24.938 245.257 35.824ZM272.619 56.8604V62.3034C272.587 63.7271 272.636 65.1515 272.766 66.5695C272.766 67.5993 273.208 68.3348 274.09 68.482L279.533 70.2472V72.3068H255.408V70.2472L261.586 68.3348C261.928 68.25 262.238 68.0645 262.474 67.8023C262.71 67.5401 262.862 67.2132 262.91 66.8638V8.16768C262.763 7.28503 262.469 6.69659 261.586 6.54948L255.555 4.48998V2.43047H282.77C290.419 2.43047 296.304 3.90156 299.981 6.84371C301.909 8.25461 303.456 10.1225 304.483 12.2794C305.51 14.4364 305.985 16.8148 305.866 19.2008C306.07 23.5733 304.656 27.8678 301.894 31.2636C298.641 34.7357 294.451 37.1887 289.831 38.3248C291.89 41.5612 293.95 44.6504 295.715 47.5926C297.48 50.5348 299.099 53.3298 300.717 55.8307L304.836 62.4505C305.882 64.0628 307.116 65.5444 308.514 66.8638C308.98 67.4291 309.525 67.9245 310.132 68.3348L311.897 69.3646L313.809 70.1002L316.163 70.6886V72.8952L310.132 73.3365H306.454L303.659 73.0423L301.599 72.3068L299.54 70.9828C298.002 69.719 296.663 68.2313 295.568 66.5695C294.244 64.6571 292.773 62.3034 291.449 59.9497L286.889 52.0058C285.418 49.2108 283.799 46.5628 282.034 43.7678L280.71 42.0025C280.396 41.5391 279.997 41.1397 279.533 40.8256L278.062 40.2372H272.472L272.619 56.8604ZM272.619 35.824H278.209C283.947 35.824 288.213 34.6471 290.861 32.1463C293.509 29.6454 294.833 25.9677 294.833 20.6719C294.833 15.376 293.656 11.9925 291.008 9.63876C288.36 7.28503 284.535 6.25525 279.092 6.25525H276.003L272.619 6.54948V35.824ZM332.051 2.57755H367.798L368.092 2.87178L365.15 18.3181L363.238 18.7594L360.148 7.1379H337.053V34.5H353.234C354.117 34.5 354.558 34.0587 354.853 33.176L356.618 26.5562H359.266C359.266 31.2636 359.119 34.6471 359.119 36.8537C359.119 39.0604 359.266 42.4438 359.266 47.0042L356.618 47.2984L354.853 40.3843C354.558 39.5017 354.117 39.0604 353.234 39.0604H337.053V57.3017C337.053 60.9794 337.053 64.6571 337.2 68.1877H361.178L367.21 55.5364L369.416 55.0951L368.387 72.4538L367.945 72.8952H319.841V70.8357L326.019 68.9233C326.372 68.8591 326.693 68.6799 326.933 68.4137C327.172 68.1475 327.317 67.8093 327.343 67.4522V8.16768C327.387 7.79925 327.291 7.42775 327.072 7.12767C326.854 6.82758 326.531 6.62107 326.167 6.54948L319.988 4.48998V2.43047H332.345M412.078 1.25358L434.144 62.1563C434.708 63.8003 435.448 65.3787 436.35 66.8638C437.159 67.7005 438.174 68.3094 439.293 68.6291L444 70.1002V72.1597H418.256V70.1002L422.964 68.6291C423.517 68.537 424.029 68.2807 424.435 67.8935C424.594 67.7144 424.716 67.5046 424.792 67.277C424.868 67.0494 424.896 66.8086 424.876 66.5695C424.865 65.6557 424.664 64.7542 424.288 63.9216C423.993 62.8918 423.405 61.4208 422.816 59.6555L418.109 46.2686H393.983L388.687 59.5084C388.099 61.4208 387.511 62.8919 387.069 64.0687C386.712 64.8559 386.512 65.7055 386.481 66.5695C386.461 66.8086 386.489 67.0494 386.565 67.277C386.641 67.5046 386.762 67.7144 386.922 67.8935L388.393 68.6291L392.954 69.953V72.1597H371.476V70.1002L376.477 68.482C377.546 68.1454 378.509 67.5371 379.272 66.7166C380.024 65.4508 380.664 64.1218 381.185 62.7448L406.635 2.13624L412.078 1.25358ZM395.749 41.8554H416.344L406.635 14.4933L395.749 41.8554Z" fill="#DCE4C9"/>
<path d="M160.817 98.4925H173.027L171.997 103.641H171.408L170.379 99.6693H162.582V108.937H168.025C168.319 108.937 168.466 108.79 168.613 108.496L169.202 106.142H170.084V113.056H169.202L168.613 110.85C168.466 110.555 168.319 110.408 168.025 110.408H162.582V120.264H170.673L172.732 115.998H173.468L173.174 121.883H156.845V121.294L158.904 120.559C159.021 120.559 159.134 120.512 159.216 120.429C159.299 120.347 159.345 120.234 159.345 120.117C159.321 119.622 159.371 119.127 159.493 118.646V101.582C159.38 101.2 159.331 100.803 159.345 100.405C159.345 100.291 159.319 100.178 159.268 100.076C159.217 99.9738 159.143 99.885 159.051 99.8164L156.845 99.0809V98.4925H160.964M192.151 99.9636C191.121 99.5557 190.021 99.3557 188.914 99.3751C187.652 99.2856 186.4 99.6509 185.384 100.405C184.96 100.792 184.633 101.273 184.429 101.81C184.224 102.346 184.148 102.923 184.207 103.494C184.213 104.156 184.364 104.809 184.648 105.407C184.916 105.945 185.322 106.402 185.825 106.731C186.353 107.206 186.948 107.602 187.59 107.907L189.65 108.937L191.856 109.967C192.624 110.266 193.325 110.717 193.916 111.291C194.515 111.742 194.974 112.354 195.24 113.056C195.672 113.816 195.876 114.684 195.828 115.557C195.872 116.551 195.65 117.538 195.184 118.418C194.719 119.297 194.027 120.036 193.18 120.559C191.152 121.811 188.795 122.426 186.413 122.324C184.422 122.288 182.444 121.991 180.529 121.441H180.382L181.265 115.704H182L183.177 120.412C184.348 120.88 185.594 121.129 186.855 121.147C188.228 121.214 189.581 120.797 190.68 119.97C191.167 119.622 191.557 119.156 191.814 118.616C192.072 118.075 192.187 117.478 192.151 116.881C192.16 116.217 192.008 115.561 191.709 114.969C191.401 114.417 191.003 113.92 190.532 113.498L188.767 112.468L186.708 111.585L184.354 110.408C183.631 110.106 182.979 109.655 182.441 109.084C181.838 108.542 181.339 107.894 180.97 107.172C180.655 106.326 180.506 105.427 180.529 104.524C180.493 103.588 180.705 102.66 181.144 101.833C181.583 101.006 182.234 100.31 183.03 99.8164C184.947 98.6986 187.137 98.1381 189.356 98.1982C191.182 98.2567 193.002 98.4534 194.799 98.7867H194.946L193.916 104.083H193.327L192.151 99.9636ZM210.392 121.883H205.832V121.294L208.333 120.559C208.627 120.412 208.774 120.264 208.774 119.97V99.9636H202.89L201.418 104.377H200.683L200.242 98.4925H220.837L219.807 104.23H219.071L218.042 99.6693H212.01V116.44C211.975 117.521 212.024 118.603 212.157 119.676C212.157 119.97 212.304 120.117 212.599 120.264L215.099 121V121.736H210.392M235.548 97.9041L242.903 118.499C243.094 119.044 243.395 119.545 243.786 119.97C243.884 120.124 244.013 120.255 244.165 120.357C244.317 120.458 244.488 120.527 244.668 120.559L246.286 121.147V121.883H237.754V121.294L239.372 120.706H239.814C239.961 120.559 239.961 120.412 239.961 120.117C239.97 119.864 239.92 119.612 239.814 119.382L239.372 117.911L237.754 113.35H229.663L227.898 117.911C227.727 118.411 227.531 118.902 227.309 119.382C227.191 119.66 227.141 119.963 227.162 120.264C227.156 120.344 227.165 120.424 227.19 120.5C227.216 120.576 227.256 120.646 227.309 120.706H227.751L229.369 121.147V122.03H222.161V121.294L223.926 120.706C224.22 120.559 224.661 120.412 224.809 120.117C225.116 119.714 225.364 119.268 225.544 118.793L234.076 98.3454L235.548 97.9041ZM230.104 111.585H237.019L233.782 102.317L230.104 111.585ZM258.643 121.736H254.083V121.294L256.584 120.559C256.878 120.412 256.878 120.264 256.878 119.97C257.012 118.897 257.061 117.815 257.025 116.734V99.9636H250.994L249.523 104.377H248.934L248.493 98.4925H268.941L267.911 104.23H267.323L266.146 99.6693H260.262V119.676C260.262 119.97 260.556 120.117 260.85 120.264L263.204 121V121.736H258.496M278.503 98.3454H290.713L289.683 103.494H289.095L288.065 99.5222H280.268V108.79H285.711C286.006 108.79 286.153 108.643 286.3 108.349L286.888 105.995H287.771C287.624 107.613 287.624 108.79 287.624 109.526C287.616 110.655 287.665 111.784 287.771 112.909H286.888L286.3 110.702C286.153 110.408 286.006 110.261 285.711 110.261H280.268V120.117H288.359L290.419 115.851H291.154L290.713 121.736H274.531V121.294L276.591 120.559C276.708 120.559 276.82 120.512 276.903 120.429C276.985 120.347 277.032 120.234 277.032 120.117C277.008 119.622 277.057 119.127 277.179 118.646V101.582C277.067 101.2 277.017 100.803 277.032 100.405C277.032 100.291 277.005 100.178 276.954 100.076C276.903 99.9738 276.829 99.885 276.738 99.8164L274.531 99.0809V98.4925H278.65" fill="#DCE4C9"/>
<path d="M132.278 110.408C134.053 110.831 135.618 111.875 136.691 113.35V113.644C133.896 113.939 129.335 111.879 125.511 110.996C96.5303 104.818 62.6955 122.324 35.9219 107.025H36.0689C65.3434 121.294 100.796 99.8163 132.425 110.555M315.721 110.555C313.946 110.978 312.381 112.022 311.308 113.497V113.792C314.103 114.086 318.663 112.026 322.488 111.144C351.469 104.965 385.303 122.471 412.077 107.172H411.93C382.655 121.441 347.202 99.9634 315.574 110.702" fill="#DCE4C9"/>
</g>
<defs>
<filter id="filter0_di_5_123" x="0" y="0.665161" width="448" height="129.67" filterUnits="userSpaceOnUse" color-interpolation-filters="sRGB">
<feFlood flood-opacity="0" result="BackgroundImageFix"/>
<feColorMatrix in="SourceAlpha" type="matrix" values="0 0 0 0 0 0 0 0 0 0 0 0 0 0 0 0 0 0 127 0" result="hardAlpha"/>
<feOffset dy="4"/>
<feGaussianBlur stdDeviation="2"/>
<feComposite in2="hardAlpha" operator="out"/>
<feColorMatrix type="matrix" values="0 0 0 0 0 0 0 0 0 0 0 0 0 0 0 0 0 0 0.1 0"/>
<feBlend mode="normal" in2="BackgroundImageFix" result="effect1_dropShadow_5_123"/>
<feBlend mode="normal" in="SourceGraphic" in2="effect1_dropShadow_5_123" result="shape"/>
<feColorMatrix in="SourceAlpha" type="matrix" values="0 0 0 0 0 0 0 0 0 0 0 0 0 0 0 0 0 0 127 0" result="hardAlpha"/>
<feOffset dy="2"/>
<feGaussianBlur stdDeviation="1"/>
<feComposite in2="hardAlpha" operator="arithmetic" k2="-1" k3="1"/>
<feColorMatrix type="matrix" values="0 0 0 0 0.598097 0 0 0 0 0.641667 0 0 0 0 0.494618 0 0 0 1 0"/>
<feBlend mode="normal" in2="shape" result="effect2_innerShadow_5_123"/>
</filter>
</defs>
</svg>
