<svg width="13" height="12" viewBox="0 0 13 12" fill="none" xmlns="http://www.w3.org/2000/svg">
<path d="M12.2909 0.189536C12.175 0.0738208 12.018 0.00882442 11.8542 0.00882442C11.6905 0.00882442 11.5334 0.0738208 11.4176 0.189536L6.49898 5.12462L1.58243 0.181297C1.46635 0.0652144 1.30891 -1.22313e-09 1.14474 0C0.980578 1.22313e-09 0.823137 0.0652144 0.707054 0.181297C0.590971 0.29738 0.525757 0.454821 0.525757 0.618987C0.525757 0.783153 0.590971 0.940594 0.707054 1.05668L5.62566 6L0.707054 10.9433C0.591244 11.0594 0.526291 11.2167 0.526484 11.3807C0.526678 11.5447 0.592001 11.7019 0.708083 11.8177C0.824166 11.9335 0.9815 11.9984 1.14547 11.9982C1.30944 11.998 1.46662 11.9327 1.58243 11.8166L6.49898 6.87538L11.4176 11.8187C11.5337 11.9348 11.6911 12 11.8553 12C12.0194 12 12.1769 11.9348 12.293 11.8187C12.409 11.7026 12.4743 11.5452 12.4743 11.381C12.4743 11.2168 12.409 11.0594 12.293 10.9433L7.3723 6L12.293 1.05668C12.4065 0.940809 12.47 0.784926 12.4696 0.622685C12.4692 0.460444 12.405 0.304863 12.2909 0.189536Z" fill="#374955"/>
</svg>
